<?xml version="1.0" encoding="UTF-8"?>
<svg version="1.1" xmlns="http://www.w3.org/2000/svg" width="500" height="500">
<path d="M0 0 C165 0 330 0 500 0 C500 165 500 330 500 500 C335 500 170 500 0 500 C0 335 0 170 0 0 Z " fill="#591863" transform="translate(0,0)"/>
<path d="M0 0 C2.41929526 0.01848672 4.83820903 0.02050699 7.25756836 0.02026367 C18.01319409 0.04294501 28.2647574 0.17982399 38.58374023 3.45581055 C39.31036865 3.68123535 40.03699707 3.90666016 40.78564453 4.13891602 C42.28509972 4.60415782 43.78372558 5.07208127 45.28149414 5.54272461 C47.31436762 6.16184149 49.35263878 6.72144855 51.40795898 7.26049805 C74.43690274 13.49798875 94.01941533 28.4301402 111.45874023 44.20581055 C112.40491211 45.05530273 113.35108398 45.90479492 114.32592773 46.7800293 C126.78836135 58.57418749 138.17118057 74.20111323 144.45874023 90.20581055 C144.76424805 90.9534668 145.06975586 91.70112305 145.38452148 92.47143555 C147.90461959 98.65978455 150.22374997 104.90957339 152.45874023 111.20581055 C152.97114258 112.57479492 152.97114258 112.57479492 153.49389648 113.97143555 C158.75342226 128.61011566 159.93835002 143.12334944 159.79492188 158.55371094 C159.7712305 161.26942605 159.77440404 163.98415782 159.78100586 166.69995117 C159.74172694 193.55424626 159.74172694 193.55424626 154.45874023 205.20581055 C153.78634481 207.11593767 153.13937935 209.0352545 152.52124023 210.96362305 C152.18350586 212.00131836 151.84577148 213.03901367 151.49780273 214.1081543 C150.80281228 216.26366982 150.11011811 218.41992702 149.41967773 220.5769043 C149.08194336 221.61202148 148.74420898 222.64713867 148.39624023 223.71362305 C148.09588867 224.64835449 147.79553711 225.58308594 147.48608398 226.54614258 C146.40887347 229.33490953 145.05159216 231.68105613 143.45874023 234.20581055 C142.79070649 235.40196583 142.12990201 236.60220327 141.47827148 237.80737305 C125.24392248 267.50156702 102.35943965 290.36042882 72.45874023 306.20581055 C70.83180514 307.16085504 69.20643587 308.1185805 67.58374023 309.08081055 C63.82584974 311.16693987 60.03383988 312.40101964 55.89624023 313.5300293 C53.69841269 314.1393629 51.59946031 314.86144599 49.45874023 315.64331055 C44.84699105 317.20256027 40.14140826 318.26738794 35.39624023 319.33081055 C34.64020508 319.50153076 33.88416992 319.67225098 33.10522461 319.84814453 C31.994375 320.0909314 31.994375 320.0909314 30.86108398 320.33862305 C30.20615967 320.48187012 29.55123535 320.62511719 28.87646484 320.77270508 C19.90780337 322.37932988 10.9798337 322.48907473 1.89624023 322.51831055 C1.1199527 322.52092896 0.34366516 322.52354736 -0.45614624 322.52624512 C-13.82059796 322.53106157 -26.51807106 321.3732458 -39.54125977 318.20581055 C-40.28214844 318.02969238 -41.02303711 317.85357422 -41.78637695 317.67211914 C-52.71977775 315.00795176 -52.71977775 315.00795176 -57.54125977 311.20581055 C-59.37155363 310.52792393 -61.20257611 309.85193519 -63.03735352 309.1862793 C-96.7372826 295.99020722 -121.16323373 267.73410741 -138.54296875 236.94482422 C-139.38219309 235.48290321 -140.27075621 234.04946247 -141.17016602 232.6237793 C-142.81780676 229.71811086 -143.88395801 226.79849332 -144.97875977 223.64331055 C-145.3693457 222.52827148 -145.75993164 221.41323242 -146.16235352 220.2644043 C-146.62234595 218.91166106 -147.0819324 217.55877975 -147.54125977 216.20581055 C-148.01378174 214.8439563 -148.01378174 214.8439563 -148.49584961 213.45458984 C-154.39039351 196.22063638 -157.02271871 179.37238399 -157.04125977 161.20581055 C-157.04557007 160.48448944 -157.04988037 159.76316833 -157.05432129 159.01998901 C-157.1138286 135.80982192 -151.84413723 111.78023333 -141.00610352 91.2253418 C-139.87710466 88.89809882 -138.99153038 86.71842676 -138.14282227 84.29174805 C-136.61634516 80.12293068 -134.49420224 76.65833268 -131.97875977 73.01831055 C-131.54692383 72.3833667 -131.11508789 71.74842285 -130.67016602 71.09423828 C-127.56454697 66.57549525 -124.34919716 62.14088549 -121.04125977 57.76831055 C-120.40982056 56.92586792 -120.40982056 56.92586792 -119.765625 56.06640625 C-118.74050047 54.73963877 -117.64670268 53.46644064 -116.54125977 52.20581055 C-115.88125977 52.20581055 -115.22125977 52.20581055 -114.54125977 52.20581055 C-114.16227539 51.34149414 -114.16227539 51.34149414 -113.77563477 50.4597168 C-107.01500091 38.11514169 -89.46581784 27.18847962 -77.54125977 20.20581055 C-76.88125977 20.20581055 -76.22125977 20.20581055 -75.54125977 20.20581055 C-75.54125977 19.54581055 -75.54125977 18.88581055 -75.54125977 18.20581055 C-52.74408229 8.42398115 -52.74408229 8.42398115 -42.10375977 4.70581055 C-41.48194824 4.47555176 -40.86013672 4.24529297 -40.21948242 4.00805664 C-27.48063579 -0.26839454 -13.28731054 -0.10481743 0 0 Z " fill="#5F175B" transform="translate(248.541259765625,88.794189453125)"/>
<path d="M0 0 C2.41929526 0.01848672 4.83820903 0.02050699 7.25756836 0.02026367 C18.01319409 0.04294501 28.2647574 0.17982399 38.58374023 3.45581055 C39.31036865 3.68123535 40.03699707 3.90666016 40.78564453 4.13891602 C42.28509972 4.60415782 43.78372558 5.07208127 45.28149414 5.54272461 C47.31436762 6.16184149 49.35263878 6.72144855 51.40795898 7.26049805 C74.43690274 13.49798875 94.01941533 28.4301402 111.45874023 44.20581055 C112.40491211 45.05530273 113.35108398 45.90479492 114.32592773 46.7800293 C126.78836135 58.57418749 138.17118057 74.20111323 144.45874023 90.20581055 C144.76424805 90.9534668 145.06975586 91.70112305 145.38452148 92.47143555 C147.90461959 98.65978455 150.22374997 104.90957339 152.45874023 111.20581055 C152.97114258 112.57479492 152.97114258 112.57479492 153.49389648 113.97143555 C158.75342226 128.61011566 159.93835002 143.12334944 159.79492188 158.55371094 C159.7712305 161.26942605 159.77440404 163.98415782 159.78100586 166.69995117 C159.74172694 193.55424626 159.74172694 193.55424626 154.45874023 205.20581055 C153.78634481 207.11593767 153.13937935 209.0352545 152.52124023 210.96362305 C152.18350586 212.00131836 151.84577148 213.03901367 151.49780273 214.1081543 C150.80281228 216.26366982 150.11011811 218.41992702 149.41967773 220.5769043 C149.08194336 221.61202148 148.74420898 222.64713867 148.39624023 223.71362305 C148.09588867 224.64835449 147.79553711 225.58308594 147.48608398 226.54614258 C146.40887347 229.33490953 145.05159216 231.68105613 143.45874023 234.20581055 C142.79070649 235.40196583 142.12990201 236.60220327 141.47827148 237.80737305 C125.24392248 267.50156702 102.35943965 290.36042882 72.45874023 306.20581055 C70.83180514 307.16085504 69.20643587 308.1185805 67.58374023 309.08081055 C63.82584974 311.16693987 60.03383988 312.40101964 55.89624023 313.5300293 C53.69841269 314.1393629 51.59946031 314.86144599 49.45874023 315.64331055 C44.84699105 317.20256027 40.14140826 318.26738794 35.39624023 319.33081055 C34.64020508 319.50153076 33.88416992 319.67225098 33.10522461 319.84814453 C31.994375 320.0909314 31.994375 320.0909314 30.86108398 320.33862305 C30.20615967 320.48187012 29.55123535 320.62511719 28.87646484 320.77270508 C19.90780337 322.37932988 10.9798337 322.48907473 1.89624023 322.51831055 C1.1199527 322.52092896 0.34366516 322.52354736 -0.45614624 322.52624512 C-13.82059796 322.53106157 -26.51807106 321.3732458 -39.54125977 318.20581055 C-40.28214844 318.02969238 -41.02303711 317.85357422 -41.78637695 317.67211914 C-52.71977775 315.00795176 -52.71977775 315.00795176 -57.54125977 311.20581055 C-59.37155363 310.52792393 -61.20257611 309.85193519 -63.03735352 309.1862793 C-96.7372826 295.99020722 -121.16323373 267.73410741 -138.54296875 236.94482422 C-139.38219309 235.48290321 -140.27075621 234.04946247 -141.17016602 232.6237793 C-142.81780676 229.71811086 -143.88395801 226.79849332 -144.97875977 223.64331055 C-145.3693457 222.52827148 -145.75993164 221.41323242 -146.16235352 220.2644043 C-146.62234595 218.91166106 -147.0819324 217.55877975 -147.54125977 216.20581055 C-148.01378174 214.8439563 -148.01378174 214.8439563 -148.49584961 213.45458984 C-154.39039351 196.22063638 -157.02271871 179.37238399 -157.04125977 161.20581055 C-157.04557007 160.48448944 -157.04988037 159.76316833 -157.05432129 159.01998901 C-157.1138286 135.80982192 -151.84413723 111.78023333 -141.00610352 91.2253418 C-139.87710466 88.89809882 -138.99153038 86.71842676 -138.14282227 84.29174805 C-136.61634516 80.12293068 -134.49420224 76.65833268 -131.97875977 73.01831055 C-131.54692383 72.3833667 -131.11508789 71.74842285 -130.67016602 71.09423828 C-127.56454697 66.57549525 -124.34919716 62.14088549 -121.04125977 57.76831055 C-120.40982056 56.92586792 -120.40982056 56.92586792 -119.765625 56.06640625 C-118.74050047 54.73963877 -117.64670268 53.46644064 -116.54125977 52.20581055 C-115.88125977 52.20581055 -115.22125977 52.20581055 -114.54125977 52.20581055 C-114.16227539 51.34149414 -114.16227539 51.34149414 -113.77563477 50.4597168 C-107.01500091 38.11514169 -89.46581784 27.18847962 -77.54125977 20.20581055 C-76.88125977 20.20581055 -76.22125977 20.20581055 -75.54125977 20.20581055 C-75.54125977 19.54581055 -75.54125977 18.88581055 -75.54125977 18.20581055 C-52.74408229 8.42398115 -52.74408229 8.42398115 -42.10375977 4.70581055 C-41.48194824 4.47555176 -40.86013672 4.24529297 -40.21948242 4.00805664 C-27.48063579 -0.26839454 -13.28731054 -0.10481743 0 0 Z M-35.54125977 13.20581055 C-36.26071777 13.40899902 -36.98017578 13.6121875 -37.72143555 13.8215332 C-45.5644285 16.04223407 -53.25349478 18.51413943 -60.54125977 22.20581055 C-61.65758789 22.75881836 -62.77391602 23.31182617 -63.92407227 23.8815918 C-77.94790758 30.98600046 -89.84426556 39.90200005 -101.11303711 50.82885742 C-102.38045703 52.05078021 -103.67212276 53.2474428 -104.96704102 54.44018555 C-119.27141169 67.95692658 -129.62071248 85.92563984 -136.54125977 104.20581055 C-136.94924805 105.22481445 -136.94924805 105.22481445 -137.36547852 106.2644043 C-138.13831196 108.23124497 -138.85023334 110.208708 -139.54125977 112.20581055 C-140.01885742 113.5825293 -140.01885742 113.5825293 -140.50610352 114.98706055 C-145.208797 129.32583918 -147.05430987 143.39267488 -146.93237305 158.41748047 C-146.91623901 160.77133859 -146.93236475 163.12348689 -146.95141602 165.47729492 C-146.97209789 179.52705945 -144.60162299 192.59001248 -140.66625977 206.08081055 C-140.40868896 206.97429199 -140.15111816 207.86777344 -139.88574219 208.78833008 C-138.04144406 214.98666948 -135.71823108 220.56813053 -132.54125977 226.20581055 C-132.08750977 227.31956055 -131.63375977 228.43331055 -131.16625977 229.58081055 C-124.57763909 244.27850283 -114.64440287 257.62242769 -103.54125977 269.20581055 C-102.42364258 270.41817383 -102.42364258 270.41817383 -101.28344727 271.6550293 C-87.35482376 286.29617315 -69.75014596 296.80974527 -50.94360352 303.91674805 C-48.68547954 304.77229444 -46.45370692 305.70109323 -44.25610352 306.7019043 C-15.83355075 318.92513579 23.08512251 315.84186382 51.45874023 305.20581055 C53.4660746 304.22061577 55.46709592 303.22235023 57.45874023 302.20581055 C58.87000164 301.69075164 60.28671254 301.19035332 61.70874023 300.70581055 C73.40918996 296.10730299 84.98684271 288.41972168 94.45874023 280.20581055 C95.66530273 279.16166992 95.66530273 279.16166992 96.89624023 278.09643555 C99.45315856 275.83574557 101.96395644 273.53480174 104.45874023 271.20581055 C105.58795898 270.15780273 105.58795898 270.15780273 106.73999023 269.08862305 C126.66536037 249.93501021 139.82253256 224.77501668 146.45874023 198.20581055 C146.92473633 196.38049805 146.92473633 196.38049805 147.40014648 194.51831055 C150.17879223 183.13525936 150.64036824 172.15283086 150.64624023 160.45581055 C150.65848633 159.18737305 150.67073242 157.91893555 150.68334961 156.61206055 C150.7017274 144.60523881 149.28248794 133.09264421 146.08374023 121.51831055 C145.8682251 120.7173999 145.65270996 119.91648926 145.43066406 119.09130859 C143.76094373 113.00792192 141.81417169 107.0614921 139.45874023 101.20581055 C138.79874023 101.20581055 138.13874023 101.20581055 137.45874023 101.20581055 C137.37237305 100.37823242 137.28600586 99.5506543 137.19702148 98.69799805 C136.30144662 94.4617868 134.68237739 91.12552929 132.64624023 87.33081055 C132.25025635 86.59121094 131.85427246 85.85161133 131.44628906 85.08959961 C113.9654271 53.43097486 82.91344887 27.38031064 48.45874023 16.20581055 C47.41266602 15.81135742 47.41266602 15.81135742 46.34545898 15.40893555 C21.83999722 6.36360503 -10.5727714 5.75865132 -35.54125977 13.20581055 Z " fill="#F7EFF3" transform="translate(248.541259765625,88.794189453125)"/>
<path d="M0 0 C1.92578125 0.76953125 1.92578125 0.76953125 4 2 C5.5892709 6.93510438 6.35818348 11.86546784 7 17 C7.66 17 8.32 17 9 17 C10.12703211 18.27517293 11.20304897 19.59579925 12.25 20.9375 C15.41634736 24.69507405 17.07745403 25.46494066 22 26 C24.75 28.4375 24.75 28.4375 27 31 C27.66 31.66 28.32 32.32 29 33 C23.25 36 23.25 36 21 36 C20.773125 36.763125 20.54625 37.52625 20.3125 38.3125 C18.68538402 41.64421368 17.16007954 42.13268027 14 44 C8.24976571 49.22325864 5.21629502 56.0541714 2 63 C1.01 63 0.02 63 -1 63 C-1.1959375 62.09378906 -1.391875 61.18757813 -1.59375 60.25390625 C-3.64417245 51.90196999 -6.03377576 45.48309263 -13 40 C-18.04123179 36.94940845 -23.19588308 34.21610069 -29 33 C-29 32.34 -29 31.68 -29 31 C-25.535 30.505 -25.535 30.505 -22 30 C-22 29.34 -22 28.68 -22 28 C-20.47490415 26.90430007 -18.90298891 25.8734091 -17.3125 24.875 C-13.0073361 21.96840629 -10.44364586 19.37575259 -8.03515625 14.796875 C-7 13 -7 13 -5.5078125 11.58984375 C-3.55040328 9.52594336 -2.81136345 7.46465468 -1.8125 4.8125 C-1.46832031 3.91144531 -1.12414062 3.01039062 -0.76953125 2.08203125 C-0.38861328 1.05142578 -0.38861328 1.05142578 0 0 Z " fill="#571962" transform="translate(256,114)"/>
<path d="M0 0 C0.66 0 1.32 0 2 0 C2.69670416 1.78810766 3.38211189 3.58062052 4.0625 5.375 C4.44535156 6.37273437 4.82820313 7.37046875 5.22265625 8.3984375 C6 11 6 11 5 13 C5.495 13.495 5.495 13.495 6 14 C6.2475 14.7425 6.495 15.485 6.75 16.25 C8.26113776 19.57450307 10.40315353 21.47149159 13 24 C13 24.66 13 25.32 13 26 C13.969375 26.268125 14.93875 26.53625 15.9375 26.8125 C16.948125 27.204375 17.95875 27.59625 19 28 C19.495 29.485 19.495 29.485 20 31 C20.66 31 21.32 31 22 31 C20.56118484 27.41069768 18.89455021 25.99866192 15.625 24 C12.37568588 21.9279736 9.47236589 20.00983674 7 17 C7 16.34 7 15.68 7 15 C10 16 10 16 12.1875 18.25 C17.06801645 23.02206053 22.39108835 26.1825493 29 28 C29 28.99 29 29.98 29 31 C28.18015625 31.38671875 27.3603125 31.7734375 26.515625 32.171875 C25.43796875 32.69265625 24.3603125 33.2134375 23.25 33.75 C22.18265625 34.26046875 21.1153125 34.7709375 20.015625 35.296875 C17.1264745 36.9285714 15.28239614 38.63535535 13 41 C12.34 41 11.68 41 11 41 C10.7215625 41.58007812 10.443125 42.16015625 10.15625 42.7578125 C9.05116628 44.9007789 7.82526537 46.86285929 6.5 48.875 C4.425056 52.14349586 3.03297979 55.24370987 2 59 C1.34 59 0.68 59 0 59 C-0.33 57.02 -0.66 55.04 -1 53 C0.485 53.495 0.485 53.495 2 54 C2.268125 53.0925 2.53625 52.185 2.8125 51.25 C3.90316248 48.26502899 5.06802855 46.45887276 7 44 C7 43.34 7 42.68 7 42 C3.53028623 46.02347588 3.53028623 46.02347588 2 51 C1.34 51 0.68 51 0 51 C-0.32613281 50.30132812 -0.65226562 49.60265625 -0.98828125 48.8828125 C-1.42527344 47.97273438 -1.86226562 47.06265625 -2.3125 46.125 C-2.74175781 45.22007812 -3.17101562 44.31515625 -3.61328125 43.3828125 C-4.9199388 40.73550524 -4.9199388 40.73550524 -8 39 C-7.4946875 39.69867188 -6.989375 40.39734375 -6.46875 41.1171875 C-5.49421875 42.48230469 -5.49421875 42.48230469 -4.5 43.875 C-3.8503125 44.77992188 -3.200625 45.68484375 -2.53125 46.6171875 C-1 49 -1 49 -1 51 C-1.66 51 -2.32 51 -3 51 C-3.25652344 50.43152344 -3.51304687 49.86304688 -3.77734375 49.27734375 C-9.20051453 38.33970301 -17.86930525 34.08690484 -29 30 C-26.44928495 28.2995233 -24.30874982 27.25786243 -21.5 26.125 C-17.88818652 24.57291214 -16.22369103 23.27701835 -14 20 C-12.68 20 -11.36 20 -10 20 C-10 19.34 -10 18.68 -10 18 C-9.34 18 -8.68 18 -8 18 C-6.09387022 14.33578935 -4.48877043 10.54892369 -2.875 6.75 C-2.59785156 6.1003125 -2.32070312 5.450625 -2.03515625 4.78125 C-1.35566896 3.18796947 -0.67768372 1.5940485 0 0 Z " fill="#551A63" transform="translate(256,316)"/>
<path d="M0 0 C4.03441396 -0.02513051 8.06879625 -0.04305855 12.10327148 -0.05493164 C13.46949052 -0.05989273 14.83570444 -0.06666372 16.2019043 -0.07543945 C25.18866001 -0.13162733 34.05153774 0.15299477 43 1 C42.34 1.99 41.68 2.98 41 4 C40.71295045 8.82221496 41.25055448 13.28436892 42.09375 18.02734375 C42.31933594 19.31318359 42.54492188 20.59902344 42.77734375 21.92382812 C43.01809948 23.26174209 43.2589865 24.59963244 43.5 25.9375 C43.74143094 27.30263801 43.9823213 28.66787174 44.22265625 30.03320312 C44.80980191 33.35644757 45.40241228 36.67862017 46 40 C47.97641401 33.89030279 48.83040761 27.79829316 49.625 21.4375 C49.7590625 20.42236328 49.893125 19.40722656 50.03125 18.36132812 C51.08266429 11.19446664 51.08266429 11.19446664 51 4 C50.01 3.01 49.02 2.02 48 1 C50.97 1 53.94 1 57 1 C56.34 1.66 55.68 2.32 55 3 C54.49124834 5.30044518 54.49124834 5.30044518 54.25390625 7.99609375 C54.14030762 9.02154297 54.02670898 10.04699219 53.90966797 11.10351562 C53.79510254 12.20373047 53.68053711 13.30394531 53.5625 14.4375 C52.64426007 22.6507119 51.66274664 30.83576607 50.375 39 C50.19046265 40.19967407 50.19046265 40.19967407 50.00219727 41.42358398 C49.12639878 46.87360122 49.12639878 46.87360122 48 48 C45 48.125 45 48.125 42 48 C40.51454218 46.51454218 40.55628993 45.03015657 40.19970703 42.97094727 C39.97409592 41.68940514 39.97409592 41.68940514 39.743927 40.38197327 C39.58350922 39.45283615 39.42309143 38.52369904 39.2578125 37.56640625 C38.91067741 35.61904765 38.56300446 33.67178487 38.21484375 31.72460938 C37.66730763 28.63986072 37.12363338 25.55460365 36.58935547 22.4675293 C36.07357285 19.49833913 35.54196391 16.53233897 35.0078125 13.56640625 C34.85144318 12.63929337 34.69507385 11.71218048 34.53396606 10.75697327 C34.37725433 9.89945969 34.2205426 9.04194611 34.05908203 8.15844727 C33.92664093 7.40201431 33.79419983 6.64558136 33.65774536 5.8662262 C33.07465167 3.61618042 33.07465167 3.61618042 30 2 C29.67 3.98 29.34 5.96 29 8 C28.34 8 27.68 8 27 8 C26.67 6.35 26.34 4.7 26 3 C23.36 3 20.72 3 18 3 C16.85684253 5.28631494 16.87887268 6.54347406 16.88647461 9.08251953 C16.88658791 10.34360031 16.88658791 10.34360031 16.88670349 11.63015747 C16.89186478 12.53853363 16.89702606 13.44690979 16.90234375 14.3828125 C16.90446617 15.77691849 16.90446617 15.77691849 16.90663147 17.19918823 C16.91223947 20.17449124 16.92479332 23.14971964 16.9375 26.125 C16.94251397 28.13932183 16.94707705 30.15364484 16.95117188 32.16796875 C16.9622115 37.11200802 16.97948151 42.05599135 17 47 C17.99 47 18.98 47 20 47 C20 47.66 20 48.32 20 49 C16.04 49 12.08 49 8 49 C8 48.34 8 47.68 8 47 C8.99 47 9.98 47 11 47 C11 32.48 11 17.96 11 3 C4.26394836 4.54851964 4.26394836 4.54851964 1 9 C0.34 9 -0.32 9 -1 9 C-1.125 2.25 -1.125 2.25 0 0 Z " fill="#F3F1F4" transform="translate(232,222)"/>
<path d="M0 0 C3.04534424 0.56709489 5.88111863 0.59260962 8.9765625 0.55859375 C10.04519531 0.54957031 11.11382812 0.54054687 12.21484375 0.53125 C13.42720703 0.51384766 13.42720703 0.51384766 14.6640625 0.49609375 C14.6640625 1.15609375 14.6640625 1.81609375 14.6640625 2.49609375 C13.6740625 2.99109375 13.6740625 2.99109375 12.6640625 3.49609375 C9.34345693 17.39344297 10.46205949 32.33723653 10.6640625 46.49609375 C12.1490625 46.00109375 12.1490625 46.00109375 13.6640625 45.49609375 C13.3340625 46.48609375 13.0040625 47.47609375 12.6640625 48.49609375 C11.98859375 48.55667969 11.313125 48.61726563 10.6171875 48.6796875 C9.72515625 48.76347656 8.833125 48.84726562 7.9140625 48.93359375 C7.03234375 49.01480469 6.150625 49.09601563 5.2421875 49.1796875 C2.97055798 49.4584784 0.86554427 49.88399952 -1.3359375 50.49609375 C-1.3359375 49.83609375 -1.3359375 49.17609375 -1.3359375 48.49609375 C0.1490625 48.00109375 0.1490625 48.00109375 1.6640625 47.49609375 C2.6540625 40.56609375 3.6440625 33.63609375 4.6640625 26.49609375 C1.0340625 26.82609375 -2.5959375 27.15609375 -6.3359375 27.49609375 C-6.51769531 28.50929687 -6.69945312 29.5225 -6.88671875 30.56640625 C-7.14015332 31.91805728 -7.39408615 33.26961494 -7.6484375 34.62109375 C-7.82536133 35.61882812 -7.82536133 35.61882812 -8.00585938 36.63671875 C-8.84227596 41.01182089 -10.06706451 44.65825718 -12.3359375 48.49609375 C-13.3259375 48.99109375 -13.3259375 48.99109375 -14.3359375 49.49609375 C-14.15417969 48.62210937 -14.15417969 48.62210937 -13.96875 47.73046875 C-12.59514401 41.01036559 -11.42952283 34.2670157 -10.3359375 27.49609375 C-12.3159375 27.82609375 -14.2959375 28.15609375 -16.3359375 28.49609375 C-16.3359375 27.83609375 -16.3359375 27.17609375 -16.3359375 26.49609375 C-14.3559375 26.49609375 -12.3759375 26.49609375 -10.3359375 26.49609375 C-10.3978125 25.48546875 -10.4596875 24.47484375 -10.5234375 23.43359375 C-10.53918976 19.06234198 -9.76113544 14.88974151 -8.8984375 10.62109375 C-8.76397217 9.95456787 -8.62950684 9.28804199 -8.4909668 8.60131836 C-7.47874335 3.78170546 -7.47874335 3.78170546 -6.3359375 1.49609375 C-9.28321285 1.59778536 -9.28321285 1.59778536 -12.3359375 2.49609375 C-13.78885023 4.9586506 -13.78885023 4.9586506 -14.3359375 7.49609375 C-14.6659375 6.50609375 -14.9959375 5.51609375 -15.3359375 4.49609375 C-10.48656261 -0.51492697 -7.06505103 -1.52406619 0 0 Z " fill="#F5EFF3" transform="translate(375.3359375,221.50390625)"/>
<path d="M0 0 C3.57092935 0 5.8751293 0.16438176 8.77734375 2.3203125 C18.53943538 12.54726563 22.84312025 28.47614918 28 41 C28.33 28.13 28.66 15.26 29 2 C28.01 2 27.02 2 26 2 C26 1.34 26 0.68 26 0 C28.64 0 31.28 0 34 0 C34 0.66 34 1.32 34 2 C33.34 2.33 32.68 2.66 32 3 C31.97532919 9.08723655 31.95715396 15.17444417 31.94506836 21.26171875 C31.94003148 23.33366401 31.93320175 25.4056057 31.92456055 27.47753906 C31.91246679 30.45118082 31.90676533 33.42477569 31.90234375 36.3984375 C31.89718246 37.32868744 31.89202118 38.25893738 31.88670349 39.21737671 C31.88662796 40.07811798 31.88655243 40.93885925 31.88647461 41.82568359 C31.88314369 42.96485733 31.88314369 42.96485733 31.87974548 44.12704468 C31.88398961 46.09213361 31.88398961 46.09213361 33 48 C30.0363222 47.92943624 27.80597186 47.70583958 25.51831055 45.70239258 C21.54147865 41.06802195 18.92071199 36.30916174 16.4375 30.75 C16.07720703 29.96753906 15.71691406 29.18507812 15.34570312 28.37890625 C14.21866934 25.92465505 13.10953828 23.46221017 12 21 C10.35 17.37 8.7 13.74 7 10 C6.67 21.88 6.34 33.76 6 46 C6.66 46.33 7.32 46.66 8 47 C5.36 47.33 2.72 47.66 0 48 C0.48678223 47.525625 0.97356445 47.05125 1.47509766 46.5625 C3.72760596 42.77730512 3.42966332 39.32832347 3.3984375 35 C3.40130768 34.12730469 3.40417786 33.25460938 3.40713501 32.35546875 C3.40917367 30.51301422 3.40365764 28.67053795 3.39111328 26.828125 C3.37505654 24.00992379 3.39096838 21.19315667 3.41015625 18.375 C3.40817378 16.58333017 3.40433003 14.79166124 3.3984375 13 C3.40451019 12.15824219 3.41058289 11.31648437 3.4168396 10.44921875 C3.37012577 5.71241045 3.37012577 5.71241045 1.47509766 1.4375 C0.98831543 0.963125 0.5015332 0.48875 0 0 Z " fill="#F8F6F8" transform="translate(196,222)"/>
<path d="M0 0 C0.92941406 0.15339844 1.85882813 0.30679688 2.81640625 0.46484375 C7.83606589 1.18193798 12.87587934 1.35145498 17.9375 1.5625 C18.90751953 1.60568359 19.87753906 1.64886719 20.87695312 1.69335938 C23.25118601 1.79862093 25.62550921 1.90075707 28 2 C27.67 4.31 27.34 6.62 27 9 C26.34 9 25.68 9 25 9 C24.87625 8.360625 24.7525 7.72125 24.625 7.0625 C24.41875 6.381875 24.2125 5.70125 24 5 C21.43106162 3.71553081 19.23423663 3.67022856 16.375 3.4375 C14.60125 3.293125 12.8275 3.14875 11 3 C10.67 9.6 10.34 16.2 10 23 C11.77375 22.855625 13.5475 22.71125 15.375 22.5625 C16.37273437 22.48128906 17.37046875 22.40007812 18.3984375 22.31640625 C20.97927613 22.15034374 20.97927613 22.15034374 23 21 C23 22.98 23 24.96 23 27 C22.34 26.67 21.68 26.34 21 26 C19.12943209 25.7724985 17.25314042 25.59037189 15.375 25.4375 C14.37210938 25.35371094 13.36921875 25.26992187 12.3359375 25.18359375 C11.56507813 25.12300781 10.79421875 25.06242187 10 25 C10.13818532 28.47951523 10.28682601 31.95850495 10.4375 35.4375 C10.47681641 36.43072266 10.51613281 37.42394531 10.55664062 38.44726562 C10.61948242 39.86362305 10.61948242 39.86362305 10.68359375 41.30859375 C10.72025146 42.18314209 10.75690918 43.05769043 10.79467773 43.95874023 C10.78181066 45.9927402 10.78181066 45.9927402 12 47 C15.70882497 47.42912024 19.29833237 47.50722559 23 47 C25.74770272 44.7211176 25.74770272 44.7211176 27 42 C27.125 47.75 27.125 47.75 26 50 C25.03175293 50.03758423 25.03175293 50.03758423 24.04394531 50.07592773 C21.11244106 50.19214433 18.18123783 50.31475442 15.25 50.4375 C14.23421875 50.47681641 13.2184375 50.51613281 12.171875 50.55664062 C11.1921875 50.59853516 10.2125 50.64042969 9.203125 50.68359375 C8.30239258 50.72025146 7.40166016 50.75690918 6.47363281 50.79467773 C4.20403661 50.98306407 2.18437113 51.37366501 0 52 C0.48699371 51.43358292 0.97398743 50.86716583 1.47573853 50.28358459 C3.191869 47.71254991 3.37887846 46.50937105 3.38818359 43.46264648 C3.39764008 42.57169785 3.40709656 41.68074921 3.4168396 40.76280212 C3.41076691 39.80853836 3.40469421 38.8542746 3.3984375 37.87109375 C3.40130768 36.88504654 3.40417786 35.89899933 3.40713501 34.8830719 C3.40917452 32.80102971 3.40365258 30.71896832 3.39111328 28.63696289 C3.37504126 25.44569219 3.39097492 22.25568473 3.41015625 19.06445312 C3.40817413 17.04166387 3.40433111 15.01887539 3.3984375 12.99609375 C3.40451019 12.03980576 3.41058289 11.08351776 3.4168396 10.09825134 C3.40265488 8.76655663 3.40265488 8.76655663 3.38818359 7.40795898 C3.38579681 6.62726547 3.38341003 5.84657196 3.38095093 5.04222107 C2.90901481 2.51224198 1.94865527 1.61690797 0 0 Z " fill="#F5F2F6" transform="translate(166,220)"/>
<path d="M0 0 C6.93 0.495 6.93 0.495 14 1 C13.01 2.485 13.01 2.485 12 4 C11.48031398 10.27747715 12.79336108 16.28131998 13.9375 22.4375 C15.1270323 28.94840296 16.25515295 35.42182447 17 42 C21.02849055 22.65139288 21.02849055 22.65139288 22 3 C23.98 3 25.96 3 28 3 C27.34 3.66 26.68 4.32 26 5 C25.48636913 7.60950681 25.08192094 10.15579788 24.74609375 12.7890625 C24.58742577 13.954944 24.58742577 13.954944 24.42555237 15.14437866 C24.08827476 17.63692841 23.76279118 20.13086055 23.4375 22.625 C23.21495796 24.282655 22.99165928 25.94020861 22.76757812 27.59765625 C22.35403328 30.67079469 21.9438781 33.74432188 21.54077148 36.81884766 C21.44875458 37.5085968 21.35673767 38.19834595 21.26193237 38.90899658 C21.08125896 40.3513106 20.92130423 41.79631924 20.77835083 43.24285889 C20.20654561 48.79345439 20.20654561 48.79345439 18 51 C15.375 50.625 15.375 50.625 13 50 C11.17493032 44.99855389 10.13386429 40.01912411 9.16015625 34.8046875 C8.81614151 33.01945677 8.47172856 31.23430273 8.12695312 29.44921875 C7.59155349 26.65430956 7.05947469 23.85888457 6.53442383 21.06201172 C6.02332683 18.34932097 5.49896891 15.6394612 4.97265625 12.9296875 C4.74280785 11.67646194 4.74280785 11.67646194 4.50831604 10.3979187 C4.27808998 9.22617599 4.27808998 9.22617599 4.04321289 8.03076172 C3.91378799 7.34714569 3.7843631 6.66352966 3.65101624 5.959198 C2.94367449 3.48445322 2.94367449 3.48445322 0 0 Z " fill="#F4F1F5" transform="translate(138,220)"/>
<path d="M0 0 C8.58 0 17.16 0 26 0 C25.67 2.64 25.34 5.28 25 8 C24.71125 7.360625 24.4225 6.72125 24.125 6.0625 C23.17176549 3.84793921 23.17176549 3.84793921 21 3 C17.32984725 2.8622315 13.67388652 2.95728039 10 3 C9.67 9.93 9.34 16.86 9 24 C17.87268146 23.71199066 17.87268146 23.71199066 21 22 C21 23.65 21 25.3 21 27 C17.04 26.67 13.08 26.34 9 26 C9.14016167 29.14618209 9.28684905 32.29181816 9.4375 35.4375 C9.47681641 36.33533203 9.51613281 37.23316406 9.55664062 38.15820312 C9.61948242 39.43920898 9.61948242 39.43920898 9.68359375 40.74609375 C9.73858032 41.93223267 9.73858032 41.93223267 9.79467773 43.14233398 C9.80563257 45.01401441 9.80563257 45.01401441 11 46 C14.39832279 46.48901184 17.61385731 46.59850611 21 46 C23.63844898 43.17142929 23.63844898 43.17142929 25 40 C25.33 40 25.66 40 26 40 C26.04241723 42.33294775 26.04092937 44.66702567 26 47 C24.25493385 48.74506615 21.80960857 48.23282784 19.43359375 48.31640625 C18.30888672 48.35830078 17.18417969 48.40019531 16.02539062 48.44335938 C14.84138672 48.48267578 13.65738281 48.52199219 12.4375 48.5625 C11.24962891 48.60568359 10.06175781 48.64886719 8.83789062 48.69335938 C5.89205216 48.79983546 2.9461257 48.90184841 0 49 C0.66 48.34 1.32 47.68 2 47 C2.29136164 45.02060859 2.29136164 45.02060859 2.22705078 42.73388672 C2.22689972 41.85312469 2.22674866 40.97236267 2.22659302 40.06491089 C2.21627045 39.11278717 2.20594788 38.16066345 2.1953125 37.1796875 C2.1924826 36.20589142 2.18965271 35.23209534 2.18673706 34.22879028 C2.17551913 31.11073651 2.1504117 27.99296732 2.125 24.875 C2.11497228 22.76432706 2.10584607 20.65364962 2.09765625 18.54296875 C2.07557458 13.36188165 2.04208129 8.18096115 2 3 C1.34 2.67 0.68 2.34 0 2 C0 1.34 0 0.68 0 0 Z " fill="#F2EBF1" transform="translate(110,221)"/>
<path d="M0 0 C2 2 2 2 3.625 5.3125 C5.7380394 9.15438982 8.41461341 10.86694666 12.1953125 12.95703125 C14 14 14 14 16 16 C15.071875 16.12375 15.071875 16.12375 14.125 16.25 C11.8653367 16.77905978 11.8653367 16.77905978 11.0625 18.75 C10.5365625 19.86375 10.5365625 19.86375 10 21 C9.195625 21.78375 8.39125 22.5675 7.5625 23.375 C4.91265032 26.08948016 3.52356523 28.55193133 2 32 C0.68 32 -0.64 32 -2 32 C-2.15855469 31.32453125 -2.31710938 30.6490625 -2.48046875 29.953125 C-3.91642985 24.46315217 -4.86277611 21.00715545 -10 18 C-11.31138904 17.29114106 -12.63777017 16.60543548 -14 16 C-14 15.34 -14 14.68 -14 14 C-13.34 14 -12.68 14 -12 14 C-12 13.34 -12 12.68 -12 12 C-11.46890625 11.8040625 -10.9378125 11.608125 -10.390625 11.40625 C-5.04092873 9.14141508 -2.85858492 6.95907127 -0.59375 1.609375 C-0.3978125 1.07828125 -0.201875 0.5471875 0 0 Z " fill="#571B62" transform="translate(229,167)"/>
<path d="M0 0 C1.20970459 0.00523682 2.41940918 0.01047363 3.66577148 0.01586914 C4.97094727 0.0190918 6.27612305 0.02231445 7.62084961 0.02563477 C9.00952213 0.03399138 10.39819401 0.04245634 11.78686523 0.05102539 C13.17944179 0.05603873 14.57202005 0.06060193 15.96459961 0.06469727 C19.38456394 0.07653105 22.80444367 0.09301659 26.22436523 0.11352539 C25.89436523 2.75352539 25.56436523 5.39352539 25.22436523 8.11352539 C24.56436523 8.11352539 23.90436523 8.11352539 23.22436523 8.11352539 C23.10061523 7.47415039 22.97686523 6.83477539 22.84936523 6.17602539 C22.64311523 5.49540039 22.43686523 4.81477539 22.22436523 4.11352539 C19.70261604 2.6663118 19.70261604 2.6663118 14.22436523 3.11352539 C13.89436523 17.63352539 13.56436523 32.15352539 13.22436523 47.11352539 C14.21436523 47.11352539 15.20436523 47.11352539 16.22436523 47.11352539 C16.22436523 47.77352539 16.22436523 48.43352539 16.22436523 49.11352539 C12.26436523 49.11352539 8.30436523 49.11352539 4.22436523 49.11352539 C4.22436523 48.45352539 4.22436523 47.79352539 4.22436523 47.11352539 C5.70936523 46.61852539 5.70936523 46.61852539 7.22436523 46.11352539 C7.55436523 31.92352539 7.88436523 17.73352539 8.22436523 3.11352539 C0.81872864 4.15149555 0.81872864 4.15149555 -3.77563477 9.11352539 C-3.87329102 2.96118164 -3.87329102 2.96118164 -3.77563477 1.11352539 C-2.77563477 0.11352539 -2.77563477 0.11352539 0 0 Z " fill="#F5F1F5" transform="translate(331.775634765625,221.886474609375)"/>
<path d="M0 0 C0.90105469 0.00902344 1.80210937 0.01804688 2.73046875 0.02734375 C3.41753906 0.03894531 4.10460937 0.05054688 4.8125 0.0625 C5.94833456 3.77977674 5.47920026 5.53301709 3.8125 9.0625 C3.4825 9.0625 3.1525 9.0625 2.8125 9.0625 C2.1525 7.0825 1.4925 5.1025 0.8125 3.0625 C-3.31337749 2.72732489 -3.31337749 2.72732489 -7.0625 4.1875 C-8.79173845 7.06956409 -8.58343694 8.6951506 -8.1875 12.0625 C-6.63242885 15.4496952 -4.70631735 18.58159011 -2.75 21.75 C-1.72829156 23.44009199 -0.70866598 25.13144537 0.30859375 26.82421875 C0.76419678 27.56631592 1.2197998 28.30841309 1.68920898 29.07299805 C4.03253876 33.22335543 4.55085967 37.39501211 3.8125 42.0625 C1.46736726 46.44008112 1.46736726 46.44008112 -1.1875 48.0625 C-6.21962922 49.20916551 -9.92134833 48.84751403 -14.3125 46.125 C-16.82100938 42.02776802 -17.27270697 38.75093325 -16.1875 34.0625 C-13.8125 31 -13.8125 31 -11.1875 29.0625 C-10.5275 29.0625 -9.8675 29.0625 -9.1875 29.0625 C-9.80027612 32.02425123 -10.44122522 33.44308783 -12.1875 36.0625 C-12.66660651 40.74860494 -12.66660651 40.74860494 -11 45 C-8.52700907 46.44968434 -7.00865488 46.48567323 -4.1875 46.0625 C-2.23124022 45.10701019 -2.23124022 45.10701019 -1.1875 43.0625 C-0.39226722 36.52847397 -2.51637935 33.1052626 -6.0625 27.9375 C-14.72823065 14.95104091 -14.72823065 14.95104091 -13.1875 7.0625 C-9.99112424 1.35819864 -6.30919869 -0.08193765 0 0 Z " fill="#F4F1F5" transform="translate(320.1875,221.9375)"/>
<path d="M0 0 C0.66 1.32 1.32 2.64 2 4 C1.54625 4.391875 1.0925 4.78375 0.625 5.1875 C-1.14889105 6.95743841 -1.14889105 6.95743841 -2 9.5 C-3.01849725 12.04624312 -4.05638894 13.14473489 -6 15 C-6 15.66 -6 16.32 -6 17 C-5.175 17.639375 -4.35 18.27875 -3.5 18.9375 C-2.2625 19.9584375 -2.2625 19.9584375 -1 21 C-1 21.99 -1 22.98 -1 24 C0.32 24 1.64 24 3 24 C3.020625 23.236875 3.04125 22.47375 3.0625 21.6875 C4 19 4 19 7.5625 17.1875 C9.2640625 16.5996875 9.2640625 16.5996875 11 16 C6.545 12.04 6.545 12.04 2 8 C2.33 7.34 2.66 6.68 3 6 C3.51949219 6.48210937 4.03898437 6.96421875 4.57421875 7.4609375 C9.69507421 12.1876792 9.69507421 12.1876792 16 15 C14.625 16.5 14.625 16.5 13 18 C12.34 18 11.68 18 11 18 C10.731875 18.598125 10.46375 19.19625 10.1875 19.8125 C9.00082594 21.99847854 7.90400887 23.41332594 6 25 C5.34 25 4.68 25 4 25 C3.67 27.64 3.34 30.28 3 33 C5.9528472 34.4764236 8.68448983 34.22272939 11.9765625 34.31640625 C12.66181 34.33718735 13.3470575 34.35796844 14.05307007 34.37937927 C16.24361069 34.44480185 18.43427189 34.50372554 20.625 34.5625 C22.1093875 34.60569218 23.59376278 34.6493067 25.078125 34.69335938 C28.71862084 34.80047553 32.35925251 34.90176362 36 35 C36 35.33 36 35.66 36 36 C31.57498261 36.07547261 27.15032916 36.12920892 22.72485352 36.16479492 C21.22674008 36.17966572 19.7286684 36.19996866 18.23071289 36.22631836 C7.7322986 36.40604952 -1.7746908 35.48966491 -12 33 C-12 32.67 -12 32.34 -12 32 C-8.7 32.33 -5.4 32.66 -2 33 C-4.61699541 25.92397298 -4.61699541 25.92397298 -10 21 C-10 20.34 -10 19.68 -10 19 C-10.99 18.67 -11.98 18.34 -13 18 C-13.33 17.01 -13.66 16.02 -14 15 C-13.20335937 14.56300781 -13.20335937 14.56300781 -12.390625 14.1171875 C-6.20008274 10.52486553 -3.00950184 6.52058731 0 0 Z " fill="#C75370" transform="translate(229,366)"/>
<path d="M0 0 C1.875 0.3125 1.875 0.3125 4 1 C6 4 6 4 6 7 C6.99 7.33 7.98 7.66 9 8 C10.6875 11.0625 10.6875 11.0625 12 14 C9.04590299 12.62845496 6.55991624 11.01136276 4 9 C4.48210937 9.40992188 4.96421875 9.81984375 5.4609375 10.2421875 C6.40839844 11.05042969 6.40839844 11.05042969 7.375 11.875 C8.00148437 12.40867187 8.62796875 12.94234375 9.2734375 13.4921875 C10.55836651 14.61432007 11.79371975 15.79371975 13 17 C11 19 11 19 7.9375 19.875 C6.968125 20.24625 5.99875 20.6175 5 21 C4.03122943 23.03243548 4.03122943 23.03243548 4 25 C2.68 25 1.36 25 0 25 C-1.5625 22.625 -1.5625 22.625 -3 20 C-3.99 19.34 -4.98 18.68 -6 18 C-4.84826645 15.53199953 -3.95216435 13.95216435 -2 12 C-0.96157435 9.68351201 0.0421975 7.35096976 1 5 C1.66 5 2.32 5 3 5 C2.34 4.01 1.68 3.02 1 2 C0.78085938 2.51949219 0.56171875 3.03898437 0.3359375 3.57421875 C-2.62141818 10.0779969 -6.05816105 13.03877404 -12 17 C-11.67 17.99 -11.34 18.98 -11 20 C-11.99 19.67 -12.98 19.34 -14 19 C-14.33 17.35 -14.66 15.7 -15 14 C-8.375 10 -8.375 10 -5 10 C-4.7834375 8.824375 -4.7834375 8.824375 -4.5625 7.625 C-4 5 -4 5 -3 3 C-2.34 3 -1.68 3 -1 3 C-0.67 2.01 -0.34 1.02 0 0 Z " fill="#841F5E" transform="translate(228,365)"/>
<path d="M0 0 C0.33 0.66 0.66 1.32 1 2 C0.01 2.495 0.01 2.495 -1 3 C-1.02467081 9.08723655 -1.04284604 15.17444417 -1.05493164 21.26171875 C-1.05996852 23.33366401 -1.06679825 25.4056057 -1.07543945 27.47753906 C-1.08753321 30.45118082 -1.09323467 33.42477569 -1.09765625 36.3984375 C-1.10281754 37.32868744 -1.10797882 38.25893738 -1.11329651 39.21737671 C-1.11337204 40.07811798 -1.11344757 40.93885925 -1.11352539 41.82568359 C-1.11685631 42.96485733 -1.11685631 42.96485733 -1.12025452 44.12704468 C-1.11601039 46.09213361 -1.11601039 46.09213361 0 48 C-3.3 48 -6.6 48 -10 48 C-9.34 47.01 -8.68 46.02 -8 45 C-7.69870246 43.01730657 -7.69870246 43.01730657 -7.74121094 40.83569336 C-7.73490662 40.00150375 -7.72860229 39.16731415 -7.72210693 38.30784607 C-7.7261554 37.4109053 -7.73020386 36.51396454 -7.734375 35.58984375 C-7.73246155 34.66659805 -7.7305481 33.74335236 -7.72857666 32.79212952 C-7.72721592 30.84115323 -7.73090459 28.89016786 -7.73925781 26.93920898 C-7.74997103 23.94559511 -7.73935249 20.9525797 -7.7265625 17.95898438 C-7.72788388 16.06510284 -7.73044581 14.17122167 -7.734375 12.27734375 C-7.73032654 11.37837875 -7.72627808 10.47941376 -7.72210693 9.5532074 C-7.72841125 8.72216995 -7.73471558 7.89113251 -7.74121094 7.03491211 C-7.74280212 6.30227646 -7.74439331 5.56964081 -7.74603271 4.81480408 C-7.84937184 2.74910552 -7.84937184 2.74910552 -10 1 C-6.7 0.67 -3.4 0.34 0 0 Z " fill="#F1EEF2" transform="translate(301,222)"/>
<path d="M0 0 C1 1 1 1 1.1328125 4.1328125 C1.13023437 5.45023438 1.12765625 6.76765625 1.125 8.125 C1.12757813 9.42695313 1.13015625 10.72890625 1.1328125 12.0703125 C1.00597452 15.82322441 0.6049258 19.30323122 0 23 C-3.63 23 -7.26 23 -11 23 C-11.54646658 6.33276929 -11.54646658 6.33276929 -7.62109375 1.1953125 C-5.13693174 -0.63638286 -2.9853252 -0.2595935 0 0 Z " fill="#5C1654" transform="translate(380,224)"/>
<path d="M0 0 C0 0.66 0 1.32 0 2 C-1.175625 2.3403125 -1.175625 2.3403125 -2.375 2.6875 C-5.11885314 3.74187169 -5.11885314 3.74187169 -6.09375 6.0625 C-7.24422333 9.79162046 -7.70306918 13.44249515 -8.125 17.3125 C-8.21136719 18.05306641 -8.29773438 18.79363281 -8.38671875 19.55664062 C-8.59734705 21.37038435 -8.79952986 23.18510543 -9 25 C-5.37 25 -1.74 25 2 25 C2 25.33 2 25.66 2 26 C-1.63 26.33 -5.26 26.66 -9 27 C-9.18175781 28.01320312 -9.36351562 29.02640625 -9.55078125 30.0703125 C-9.80421582 31.42196353 -10.05814865 32.77352119 -10.3125 34.125 C-10.48942383 35.12273437 -10.48942383 35.12273437 -10.66992188 36.140625 C-11.50633846 40.51572714 -12.73112701 44.16216343 -15 48 C-15.99 48.495 -15.99 48.495 -17 49 C-16.81824219 48.12601562 -16.81824219 48.12601562 -16.6328125 47.234375 C-15.25920651 40.51427184 -14.09358533 33.77092195 -13 27 C-14.98 27.33 -16.96 27.66 -19 28 C-19 27.34 -19 26.68 -19 26 C-17.02 26 -15.04 26 -13 26 C-13.061875 24.989375 -13.12375 23.97875 -13.1875 22.9375 C-13.20325226 18.56624823 -12.42519794 14.39364776 -11.5625 10.125 C-11.42803467 9.45847412 -11.29356934 8.79194824 -11.1550293 8.10522461 C-10.14280585 3.28561171 -10.14280585 3.28561171 -9 1 C-11.94727535 1.10169161 -11.94727535 1.10169161 -15 2 C-16.45291273 4.46255685 -16.45291273 4.46255685 -17 7 C-17.33 6.01 -17.66 5.02 -18 4 C-12.41925589 -1.76676892 -7.79704886 -1.89019366 0 0 Z " fill="#EDE7EE" transform="translate(378,222)"/>
<path d="M0 0 C0.42410156 0.40992188 0.84820312 0.81984375 1.28515625 1.2421875 C5.42769469 5.04786018 8.52853721 6.48014922 14 8 C16.8125 10.5 16.8125 10.5 19 13 C19.66 13.66 20.32 14.32 21 15 C15.25 18 15.25 18 13 18 C12.6596875 19.1446875 12.6596875 19.1446875 12.3125 20.3125 C10.68538402 23.64421368 9.16007954 24.13268027 6 26 C1.60350496 30.11394395 -0.90849826 34.44684517 -2.9453125 40.08203125 C-4.25370218 42.46136212 -5.51419472 43.02527552 -8 44 C-8.33 42.02 -8.66 40.04 -9 38 C-8.01 38.33 -7.02 38.66 -6 39 C-5.814375 38.195625 -5.62875 37.39125 -5.4375 36.5625 C-2.05057529 28.16881702 4.41673955 21.80324643 12 17 C12.66 17 13.32 17 14 17 C13.67 15.35 13.34 13.7 13 12 C11.9275 11.7525 10.855 11.505 9.75 11.25 C5.89640788 9.96546929 4.39884474 9.19845965 2 6 C0.75 2.75 0.75 2.75 0 0 Z " fill="#B56880" transform="translate(264,132)"/>
<path d="M0 0 C1.5625 1.25 1.5625 1.25 3 3 C2.6875 5.1875 2.6875 5.1875 2 7 C1.67 6.34 1.34 5.68 1 5 C0.39865234 6.16015625 0.39865234 6.16015625 -0.21484375 7.34375 C-5.19452218 16.46751455 -11.01943897 24.10514691 -21 28 C-21.66 28 -22.32 28 -23 28 C-21.63818336 30.72363329 -20.13741013 30.96486228 -17.375 32.1875 C-9.64977763 35.9507869 -4.64915441 41.24554688 -1 49 C-1.33 49.66 -1.66 50.32 -2 51 C-2.42410156 50.34773438 -2.84820312 49.69546875 -3.28515625 49.0234375 C-10.5095366 38.25831689 -16.66925061 34.19060054 -29 30 C-29 29.34 -29 28.68 -29 28 C-25.535 27.505 -25.535 27.505 -22 27 C-22 26.34 -22 25.68 -22 25 C-20.47490415 23.90430007 -18.90298891 22.8734091 -17.3125 21.875 C-13.0073361 18.96840629 -10.44364586 16.37575259 -8.03515625 11.796875 C-6.9163717 9.85483389 -5.58384111 8.57099915 -4 7 C-2.80972016 4.40084462 -2.80972016 4.40084462 -2 2 C-1.34 2 -0.68 2 0 2 C0 1.34 0 0.68 0 0 Z " fill="#B6617B" transform="translate(256,117)"/>
<path d="M0 0 C2 2 2 2 3.625 5.3125 C5.7380394 9.15438982 8.41461341 10.86694666 12.1953125 12.95703125 C14 14 14 14 16 16 C14.75146327 16.79397239 13.50109957 17.58507217 12.25 18.375 C11.55390625 18.81585938 10.8578125 19.25671875 10.140625 19.7109375 C8.13482617 20.91880906 6.10821704 21.98387737 4 23 C8.75 17.25 8.75 17.25 11 15 C10.071875 14.38125 9.14375 13.7625 8.1875 13.125 C6.125 11.75 4.0625 10.375 2 9 C1.01 9 0.02 9 -1 9 C-1.804375 9.804375 -2.60875 10.60875 -3.4375 11.4375 C-5.97077913 13.97077913 -6.68929886 14.38846922 -10 15 C-9.43410156 15.48210937 -8.86820313 15.96421875 -8.28515625 16.4609375 C-7.55167969 17.09257812 -6.81820312 17.72421875 -6.0625 18.375 C-5.33160156 19.00148437 -4.60070312 19.62796875 -3.84765625 20.2734375 C-2 22 -2 22 -1 24 C1.02463255 24.65213292 1.02463255 24.65213292 3 25 C2.34 26.98 1.68 28.96 1 31 C-0.8125 30.5 -0.8125 30.5 -3 29 C-3.65234375 27.26171875 -3.65234375 27.26171875 -4.25 25.1875 C-5.72040046 20.61015166 -8.19282549 19.15288632 -12.35546875 17.0078125 C-12.89816406 16.67523438 -13.44085938 16.34265625 -14 16 C-14 15.34 -14 14.68 -14 14 C-13.34 14 -12.68 14 -12 14 C-12 13.34 -12 12.68 -12 12 C-11.46890625 11.8040625 -10.9378125 11.608125 -10.390625 11.40625 C-5.04092873 9.14141508 -2.85858492 6.95907127 -0.59375 1.609375 C-0.3978125 1.07828125 -0.201875 0.5471875 0 0 Z " fill="#D296A0" transform="translate(229,167)"/>
<path d="M0 0 C3 1 3 1 5.1875 3.25 C10.06801645 8.02206053 15.39108835 11.1825493 22 13 C22 13.99 22 14.98 22 16 C21.18015625 16.38671875 20.3603125 16.7734375 19.515625 17.171875 C18.43796875 17.69265625 17.3603125 18.2134375 16.25 18.75 C15.18265625 19.26046875 14.1153125 19.7709375 13.015625 20.296875 C10.1264745 21.9285714 8.28239614 23.63535535 6 26 C5.34 26 4.68 26 4 26 C3.7215625 26.58007812 3.443125 27.16015625 3.15625 27.7578125 C2.05116628 29.9007789 0.82526537 31.86285929 -0.5 33.875 C-2.574944 37.14349586 -3.96702021 40.24370987 -5 44 C-5.66 44 -6.32 44 -7 44 C-7.33 42.02 -7.66 40.04 -8 38 C-7.01 38.33 -6.02 38.66 -5 39 C-4.731875 38.0925 -4.46375 37.185 -4.1875 36.25 C-3.08231782 33.22529089 -1.9367553 31.50164226 0 29 C0.309375 28.175 0.61875 27.35 0.9375 26.5 C2.17694798 23.58365181 3.5560217 21.99961861 6 20 C6.99 20 7.98 20 9 20 C9.33 19.01 9.66 18.02 10 17 C11.65 16.67 13.3 16.34 15 16 C13.56118484 12.41069768 11.89455021 10.99866192 8.625 9 C5.37568588 6.9279736 2.47236589 5.00983674 0 2 C0 1.34 0 0.68 0 0 Z " fill="#C17486" transform="translate(263,331)"/>
<path d="M0 0 C0.66 0 1.32 0 2 0 C2.69670416 1.78810766 3.38211189 3.58062052 4.0625 5.375 C4.44535156 6.37273437 4.82820313 7.37046875 5.22265625 8.3984375 C6 11 6 11 5 13 C3.68 10.36 2.36 7.72 1 5 C0.66226562 5.84304688 0.32453125 6.68609375 -0.0234375 7.5546875 C-0.46945313 8.65039062 -0.91546875 9.74609375 -1.375 10.875 C-1.81585938 11.96554687 -2.25671875 13.05609375 -2.7109375 14.1796875 C-4 17 -4 17 -6 19 C-6.99 19 -7.98 19 -9 19 C-9 19.66 -9 20.32 -9 21 C-11.30078125 22.65625 -11.30078125 22.65625 -14.3125 24.5 C-15.29863281 25.1084375 -16.28476563 25.716875 -17.30078125 26.34375 C-18.19152344 26.8903125 -19.08226562 27.436875 -20 28 C-20.99 28.66 -21.98 29.32 -23 30 C-22.35933594 30.29132813 -21.71867188 30.58265625 -21.05859375 30.8828125 C-12.05009959 35.15211376 -5.46727267 39.85958955 -1 49 C-1 49.66 -1 50.32 -1 51 C-1.66 51 -2.32 51 -3 51 C-3.25652344 50.43152344 -3.51304687 49.86304688 -3.77734375 49.27734375 C-9.20051453 38.33970301 -17.86930525 34.08690484 -29 30 C-26.44928495 28.2995233 -24.30874982 27.25786243 -21.5 26.125 C-17.88818652 24.57291214 -16.22369103 23.27701835 -14 20 C-12.68 20 -11.36 20 -10 20 C-10 19.34 -10 18.68 -10 18 C-9.34 18 -8.68 18 -8 18 C-6.09387022 14.33578935 -4.48877043 10.54892369 -2.875 6.75 C-2.59785156 6.1003125 -2.32070312 5.450625 -2.03515625 4.78125 C-1.35566896 3.18796947 -0.67768372 1.5940485 0 0 Z " fill="#EEC9C8" transform="translate(256,316)"/>
<path d="M0 0 C1.32 0.33 2.64 0.66 4 1 C4.28515625 3.296875 4.28515625 3.296875 4 6 C2.05859375 7.703125 2.05859375 7.703125 -0.5625 9.25 C-7.79425694 13.95166634 -12.56741247 20.12524037 -16 28 C-16.66 28 -17.32 28 -18 28 C-17.67 29.32 -17.34 30.64 -17 32 C-16.34 31.01 -15.68 30.02 -15 29 C-15.495 31.475 -15.495 31.475 -16 34 C-16.99 34 -17.98 34 -19 34 C-19.33692785 32.39658445 -19.66941093 30.79223445 -20 29.1875 C-20.185625 28.29417969 -20.37125 27.40085938 -20.5625 26.48046875 C-21 24 -21 24 -21 21 C-22.20593019 19.02766658 -22.20593019 19.02766658 -23.8125 17.0625 C-24.33457031 16.39347656 -24.85664063 15.72445312 -25.39453125 15.03515625 C-25.92433594 14.36355469 -26.45414063 13.69195312 -27 13 C-28.00331823 11.6691618 -29.0043109 10.33655564 -30 9 C-26.66950878 10.42630308 -24.68261063 12.15014396 -22.3125 14.875 C-21.71050781 15.55304688 -21.10851562 16.23109375 -20.48828125 16.9296875 C-18.99233806 19.01065834 -18.4210244 20.49630826 -18 23 C-17.01 23 -16.02 23 -15 23 C-14.89816406 22.41863281 -14.79632813 21.83726562 -14.69140625 21.23828125 C-12.49827905 14.13849658 -4.51788219 8.58629169 1 4 C0.67 2.68 0.34 1.36 0 0 Z " fill="#97375C" transform="translate(274,143)"/>
<path d="M0 0 C1.65 0 3.3 0 5 0 C7.05362055 5.08940744 8.43179252 9.54520815 9 15 C10.32 15.33 11.64 15.66 13 16 C13.33 17.32 13.66 18.64 14 20 C12.35 18.68 10.7 17.36 9 16 C12.49762661 20.73871992 16.02706988 23.52911049 21.109375 26.5078125 C23.31459562 28.24829654 23.64763588 29.26330531 24 32 C23.34 32 22.68 32 22 32 C21.34 31.01 20.68 30.02 20 29 C19.278125 28.773125 18.55625 28.54625 17.8125 28.3125 C13.54690242 26.3218878 10.56731368 22.92125721 8 19 C8 17.68 8 16.36 8 15 C7.34 15 6.68 15 6 15 C6.33 14.01 6.66 13.02 7 12 C6.02059602 9.65794699 5.01965427 7.32481174 4 5 C4 3.68 4 2.36 4 1 C3.34 1 2.68 1 2 1 C1.84144531 1.6290625 1.68289062 2.258125 1.51953125 2.90625 C-0.08501847 8.79255395 -2.00263905 14.27704548 -6 19 C-6.66 19 -7.32 19 -8 19 C-8.33 19.66 -8.66 20.32 -9 21 C-9 19.35 -9 17.7 -9 16 C-8.38511719 15.75894531 -7.77023438 15.51789063 -7.13671875 15.26953125 C-3.37726821 13.03585405 -2.43188328 8.97364739 -1 5 C-0.23980036 2.14243087 -0.23980036 2.14243087 0 0 Z " fill="#8B315C" transform="translate(254,315)"/>
<path d="M0 0 C1.875 0.3125 1.875 0.3125 4 1 C6 4 6 4 6 7 C6.99 7.33 7.98 7.66 9 8 C10.6875 11.0625 10.6875 11.0625 12 14 C8.63408134 12.55746343 6.48952921 10.66735273 4 8 C2.35 8.66 0.7 9.32 -1 10 C-0.34 8.35 0.32 6.7 1 5 C1.66 5 2.32 5 3 5 C2.34 4.01 1.68 3.02 1 2 C0.78085938 2.51949219 0.56171875 3.03898437 0.3359375 3.57421875 C-2.62141818 10.0779969 -6.05816105 13.03877404 -12 17 C-11.67 17.99 -11.34 18.98 -11 20 C-11.99 19.67 -12.98 19.34 -14 19 C-14.33 17.35 -14.66 15.7 -15 14 C-8.375 10 -8.375 10 -5 10 C-4.7834375 8.824375 -4.7834375 8.824375 -4.5625 7.625 C-4 5 -4 5 -3 3 C-2.34 3 -1.68 3 -1 3 C-0.67 2.01 -0.34 1.02 0 0 Z " fill="#962B5B" transform="translate(228,365)"/>
<path d="M0 0 C0.42410156 0.39832031 0.84820312 0.79664063 1.28515625 1.20703125 C5.32767445 4.85862461 8.88650302 7.12157254 14 9 C12.625 10.5 12.625 10.5 11 12 C10.34 12 9.68 12 9 12 C8.731875 12.598125 8.46375 13.19625 8.1875 13.8125 C7.00082594 15.99847854 5.90400887 17.41332594 4 19 C3.34 19 2.68 19 2 19 C1.67 20.98 1.34 22.96 1 25 C0.01 25.33 -0.98 25.66 -2 26 C-2.99 23.03 -3.98 20.06 -5 17 C-3.02 17.33 -1.04 17.66 1 18 C1.020625 17.236875 1.04125 16.47375 1.0625 15.6875 C2 13 2 13 5.5625 11.1875 C6.696875 10.795625 7.83125 10.40375 9 10 C8.3503125 9.44570313 7.700625 8.89140625 7.03125 8.3203125 C6.1959375 7.59585937 5.360625 6.87140625 4.5 6.125 C3.6646875 5.40570313 2.829375 4.68640625 1.96875 3.9453125 C1.3190625 3.30335938 0.669375 2.66140625 0 2 C0 1.34 0 0.68 0 0 Z " fill="#CF677C" transform="translate(231,372)"/>
<path d="M0 0 C2.97 0 5.94 0 9 0 C8.34 0.66 7.68 1.32 7 2 C6.47481084 4.41556255 6.47481084 4.41556255 6.21875 7.2421875 C6.03892578 8.84320313 6.03892578 8.84320313 5.85546875 10.4765625 C5.73816406 11.59804687 5.62085938 12.71953125 5.5 13.875 C4.78527035 20.47250449 4.0514423 27.06549688 3.09375 33.6328125 C2.95646484 34.5933252 2.81917969 35.55383789 2.67773438 36.54345703 C1.94054624 39.21549847 1.12315268 40.27294708 -1 42 C-0.23414185 33.70453492 0.84086335 25.46592257 1.98242188 17.21484375 C3.07144195 10.12449245 3.07144195 10.12449245 3 3 C2.01 2.01 1.02 1.02 0 0 Z " fill="#E1DDE3" transform="translate(280,223)"/>
<path d="M0 0 C2.64 0 5.28 0 8 0 C8 0.66 8 1.32 8 2 C7.01 2.495 7.01 2.495 6 3 C5.67 16.53 5.34 30.06 5 44 C3 42 3 42 2.77294922 38.10107422 C2.77326659 36.41891207 2.78460604 34.73672981 2.8046875 33.0546875 C2.8075174 32.1696756 2.81034729 31.2846637 2.81326294 30.37283325 C2.8244776 27.54008588 2.8495843 24.70765216 2.875 21.875 C2.88502815 19.95703581 2.89415428 18.03906667 2.90234375 16.12109375 C2.92442111 11.41394124 2.95895955 6.70702384 3 2 C2.01 2 1.02 2 0 2 C0 1.34 0 0.68 0 0 Z " fill="#EEEBEF" transform="translate(222,222)"/>
<path d="M0 0 C0 0.66 0 1.32 0 2 C-1.175625 2.3403125 -1.175625 2.3403125 -2.375 2.6875 C-5.13289692 3.76309679 -5.13289692 3.76309679 -6.25 6.1875 C-7.11793105 9.44224144 -7.60666875 12.65668436 -8 16 C-8.33 16 -8.66 16 -9 16 C-9.33 14.35 -9.66 12.7 -10 11 C-10.33 11 -10.66 11 -11 11 C-10.125 3.25 -10.125 3.25 -9 1 C-11.94727535 1.10169161 -11.94727535 1.10169161 -15 2 C-16.45291273 4.46255685 -16.45291273 4.46255685 -17 7 C-17.33 6.01 -17.66 5.02 -18 4 C-12.41925589 -1.76676892 -7.79704886 -1.89019366 0 0 Z " fill="#E1D4E1" transform="translate(378,222)"/>
<path d="M0 0 C1.98 0 3.96 0 6 0 C5.34 0.66 4.68 1.32 4 2 C3.47506459 4.70238993 3.05837198 7.34428542 2.7109375 10.0703125 C2.60278717 10.86654022 2.49463684 11.66276794 2.38320923 12.48312378 C2.03920563 15.02942464 1.70697937 17.57710633 1.375 20.125 C1.14400244 21.85036412 0.91224116 23.57562618 0.6796875 25.30078125 C0.11091897 29.53272024 -0.44729121 33.76593484 -1 38 C-3.31158016 34.53262976 -3.16540929 33.75104741 -2.75 29.75 C-2.64300781 28.6878125 -2.53601563 27.625625 -2.42578125 26.53125 C-1.97157872 22.76428594 -1.45987454 19.00809018 -0.9375 15.25 C-0.22155312 10.08987917 0.21230507 5.20147428 0 0 Z " fill="#DCD4DE" transform="translate(160,223)"/>
<path d="M0 0 C3.59981466 1.44775155 5.15103283 3.20954292 7.25 6.4375 C7.77078125 7.21996094 8.2915625 8.00242187 8.828125 8.80859375 C10 11 10 11 10 14 C10.66 14 11.32 14 12 14 C12.0928125 12.9171875 12.0928125 12.9171875 12.1875 11.8125 C13.24456647 8.15342375 15.20550071 6.50788398 18 4 C17.34215037 7.29680965 16.10579427 9.84117922 14.4375 12.75 C13.98246094 13.54921875 13.52742188 14.3484375 13.05859375 15.171875 C12.70925781 15.77515625 12.35992187 16.3784375 12 17 C11.34 17 10.68 17 10 17 C10 18.65 10 20.3 10 22 C10.66 22.33 11.32 22.66 12 23 C11.01 23 10.02 23 9 23 C5.71428571 14.57142857 5.71428571 14.57142857 5 10 C5.66 10.33 6.32 10.66 7 11 C7 11.99 7 12.98 7 14 C7.66 14 8.32 14 9 14 C7.87540329 12.22891052 6.75030797 10.45813764 5.625 8.6875 C4.99851563 7.70136719 4.37203125 6.71523438 3.7265625 5.69921875 C2.50348387 3.78712071 1.2590644 1.8885966 0 0 Z " fill="#98355B" transform="translate(246,353)"/>
<path d="M0 0 C1.875 0.5 1.875 0.5 4 2 C5.30282825 6.04562457 5.96487333 9.72337744 6.5 13.9375 C6.665 14.948125 6.83 15.95875 7 17 C7.66 17.33 8.32 17.66 9 18 C9.625 20.0625 9.625 20.0625 10 22 C9.01 22 8.02 22 7 22 C6.67 20.35 6.34 18.7 6 17 C5.01 17 4.02 17 3 17 C2.67 15.35 2.34 13.7 2 12 C1.01 12 0.02 12 -1 12 C-0.67 10.35 -0.34 8.7 0 7 C0.66 7.33 1.32 7.66 2 8 C1.67 6.68 1.34 5.36 1 4 C0.01 4.495 0.01 4.495 -1 5 C-0.67 3.35 -0.34 1.7 0 0 Z " fill="#A03961" transform="translate(256,114)"/>
<path d="M0 0 C0.66 0.33 1.32 0.66 2 1 C-4.75 5 -4.75 5 -7 5 C-5.63818336 7.72363329 -4.13741013 7.96486228 -1.375 9.1875 C6.35022237 12.9507869 11.35084559 18.24554688 15 26 C14.67 26.66 14.34 27.32 14 28 C13.57589844 27.34773438 13.15179688 26.69546875 12.71484375 26.0234375 C5.4904634 15.25831689 -0.66925061 11.19060054 -13 7 C-13 6.34 -13 5.68 -13 5 C-12.31292969 4.80664062 -11.62585938 4.61328125 -10.91796875 4.4140625 C-10.01691406 4.15367187 -9.11585938 3.89328125 -8.1875 3.625 C-7.29417969 3.36976563 -6.40085938 3.11453125 -5.48046875 2.8515625 C-2.79532104 2.04733339 -2.79532104 2.04733339 0 0 Z " fill="#EEC7C6" transform="translate(240,140)"/>
<path d="M0 0 C1.98 0.66 3.96 1.32 6 2 C5.21625 2.598125 4.4325 3.19625 3.625 3.8125 C0.85425677 5.91085249 0.85425677 5.91085249 -1 9 C0.32 7.68 1.64 6.36 3 5 C3.66 5.33 4.32 5.66 5 6 C4.52949219 6.43570313 4.05898437 6.87140625 3.57421875 7.3203125 C-0.2151214 10.94489873 -2.95670553 14.07205451 -5 19 C-6.32 19 -7.64 19 -9 19 C-8.67 18.34 -8.34 17.68 -8 17 C-7.34 17.33 -6.68 17.66 -6 18 C-5.34 16.02 -4.68 14.04 -4 12 C-5.65 11.67 -7.3 11.34 -9 11 C-8.34 10.67 -7.68 10.34 -7 10 C-6.01 10.33 -5.02 10.66 -4 11 C-3.9175 10.21625 -3.835 9.4325 -3.75 8.625 C-3 6 -3 6 -0.9375 4.6875 C-0.298125 4.460625 0.34125 4.23375 1 4 C0.67 2.68 0.34 1.36 0 0 Z " fill="#92345C" transform="translate(236,180)"/>
<path d="M0 0 C1.65 0 3.3 0 5 0 C5 0.66 5 1.32 5 2 C7.9528472 3.4764236 10.68448983 3.22272939 13.9765625 3.31640625 C14.66181 3.33718735 15.3470575 3.35796844 16.05307007 3.37937927 C18.24361069 3.44480185 20.43427189 3.50372554 22.625 3.5625 C24.1093875 3.60569218 25.59376278 3.6493067 27.078125 3.69335938 C30.71862084 3.80047553 34.35925251 3.90176362 38 4 C38 4.33 38 4.66 38 5 C33.57498261 5.07547261 29.15032916 5.12920892 24.72485352 5.16479492 C23.22674008 5.17966572 21.7286684 5.19996866 20.23071289 5.22631836 C9.7322986 5.40604952 0.2253092 4.48966491 -10 2 C-10 1.67 -10 1.34 -10 1 C-6.7 1.33 -3.4 1.66 0 2 C0 1.34 0 0.68 0 0 Z " fill="#BE4A81" transform="translate(227,397)"/>
<path d="M0 0 C0.66 0.33 1.32 0.66 2 1 C1.01 1.66 0.02 2.32 -1 3 C-0.15115234 3.72316406 -0.15115234 3.72316406 0.71484375 4.4609375 C1.81505859 5.40839844 1.81505859 5.40839844 2.9375 6.375 C4.03384766 7.31472656 4.03384766 7.31472656 5.15234375 8.2734375 C7 10 7 10 8 12 C10.02463255 12.65213292 10.02463255 12.65213292 12 13 C11.34 14.98 10.68 16.96 10 19 C8.1875 18.5 8.1875 18.5 6 17 C5.34765625 15.26171875 5.34765625 15.26171875 4.75 13.1875 C3.27959954 8.61015166 0.80717451 7.15288632 -3.35546875 5.0078125 C-3.89816406 4.67523438 -4.44085938 4.34265625 -5 4 C-5 3.34 -5 2.68 -5 2 C-2.625 0.9375 -2.625 0.9375 0 0 Z " fill="#E1ABAF" transform="translate(220,179)"/>
<path d="M0 0 C0.66 0.33 1.32 0.66 2 1 C-5.26 8.26 -12.52 15.52 -20 23 C-20.66 22.67 -21.32 22.34 -22 22 C-20.625 20 -20.625 20 -19 18 C-18.34 18 -17.68 18 -17 18 C-16.75765625 17.43152344 -16.5153125 16.86304688 -16.265625 16.27734375 C-12.6415108 9.75617529 -5.79131639 4.60335406 0 0 Z " fill="#ECCCDB" transform="translate(151,123)"/>
<path d="M0 0 C0 3 0 3 -2.375 5.6875 C-5 8 -5 8 -7 8 C-7.33 8.99 -7.66 9.98 -8 11 C-8.99 11.33 -9.98 11.66 -11 12 C-11.33 12.66 -11.66 13.32 -12 14 C-11.195625 14.268125 -10.39125 14.53625 -9.5625 14.8125 C-8.716875 15.204375 -7.87125 15.59625 -7 16 C-6.67 16.99 -6.34 17.98 -6 19 C-9.7910119 17.55049545 -13.3874638 15.84827434 -17 14 C-17 13.34 -17 12.68 -17 12 C-15.865625 11.505 -14.73125 11.01 -13.5625 10.5 C-8.27871604 7.89119074 -4.23413299 4.03810831 0 0 Z " fill="#9C395C" transform="translate(250,133)"/>
<path d="M0 0 C1.65 0 3.3 0 5 0 C5.5345256 1.24420647 6.05208611 2.49570936 6.5625 3.75 C6.85253906 4.44609375 7.14257812 5.1421875 7.44140625 5.859375 C8.07831803 8.30012784 7.80248831 9.6403655 7 12 C4 5.5 4 5.5 4 1 C3.34 1 2.68 1 2 1 C1.84144531 1.6290625 1.68289062 2.258125 1.51953125 2.90625 C-0.08501847 8.79255395 -2.00263905 14.27704548 -6 19 C-6.66 19 -7.32 19 -8 19 C-8.33 19.66 -8.66 20.32 -9 21 C-9 19.35 -9 17.7 -9 16 C-8.38511719 15.75894531 -7.77023438 15.51789063 -7.13671875 15.26953125 C-3.37726821 13.03585405 -2.43188328 8.97364739 -1 5 C-0.23980036 2.14243087 -0.23980036 2.14243087 0 0 Z " fill="#96385E" transform="translate(254,315)"/>
<path d="M0 0 C5.61 0 11.22 0 17 0 C17 0.33 17 0.66 17 1 C14.69 1.33 12.38 1.66 10 2 C10 2.33 10 2.66 10 3 C9.071875 3.2475 8.14375 3.495 7.1875 3.75 C3.77824707 5.08696193 2.96587748 6.05118379 1 9 C0.34 9 -0.32 9 -1 9 C-1.125 2.25 -1.125 2.25 0 0 Z " fill="#D4C8D8" transform="translate(232,222)"/>
<path d="M0 0 C1.875 0.3125 1.875 0.3125 4 1 C6 4 6 4 6 7 C6.99 7.33 7.98 7.66 9 8 C10.6875 11.0625 10.6875 11.0625 12 14 C8.63408134 12.55746343 6.48952921 10.66735273 4 8 C2.35 8.66 0.7 9.32 -1 10 C-0.34 8.35 0.32 6.7 1 5 C1.66 5 2.32 5 3 5 C2.34 4.01 1.68 3.02 1 2 C0.01 3.485 0.01 3.485 -1 5 C-0.67 3.35 -0.34 1.7 0 0 Z " fill="#9F355B" transform="translate(228,365)"/>
<path d="M0 0 C3.24208567 0.35049575 4.61527704 0.56221181 6.8125 3.0625 C7.204375 3.701875 7.59625 4.34125 8 5 C5.69 4.34 3.38 3.68 1 3 C-1.14567913 4.72855926 -1.14567913 4.72855926 -3 7 C-2.83333333 9.08333333 -2.83333333 9.08333333 -2 11 C-2 11.99 -2 12.98 -2 14 C-7.75 9.25 -7.75 9.25 -10 7 C-9.16855469 6.61908203 -9.16855469 6.61908203 -8.3203125 6.23046875 C-7.59585938 5.88628906 -6.87140625 5.54210937 -6.125 5.1875 C-5.40570313 4.85105469 -4.68640625 4.51460937 -3.9453125 4.16796875 C-1.69457194 3.00532903 -1.69457194 3.00532903 0 0 Z " fill="#6B235E" transform="translate(228,175)"/>
<path d="M0 0 C2.64 0 5.28 0 8 0 C5 2 5 2 1 2 C1 2.66 1 3.32 1 4 C1.78375 4.061875 2.5675 4.12375 3.375 4.1875 C8.31399811 5.29451682 12.67159419 7.3833931 17 10 C17.33 10.66 17.66 11.32 18 12 C13.32497824 10.52367734 8.80687281 8.74934146 4.26953125 6.90234375 C2.53419422 6.21239047 0.77163403 5.59054468 -1 5 C-0.67 3.35 -0.34 1.7 0 0 Z " fill="#96365D" transform="translate(226,143)"/>
<path d="M0 0 C0.42410156 0.40992188 0.84820312 0.81984375 1.28515625 1.2421875 C4.34042487 4.0490057 6.7793621 6.21234812 10.875 7.1875 C11.90625 7.455625 12.9375 7.72375 14 8 C14.33 8.99 14.66 9.98 15 11 C7.82289803 11.60822898 7.82289803 11.60822898 4.125 8.875 C1.95519165 5.93937694 0.90020186 3.5189709 0 0 Z " fill="#C67F91" transform="translate(264,132)"/>
<path d="M0 0 C1.79244141 0.01740234 1.79244141 0.01740234 3.62109375 0.03515625 C5.41740234 0.04869141 5.41740234 0.04869141 7.25 0.0625 C8.17683594 0.07410156 9.10367187 0.08570313 10.05859375 0.09765625 C7.65918711 2.00580507 6.0274459 3.10738995 3.05859375 4.03515625 C-0.20324981 5.19039251 -1.70073248 6.51226344 -3.94140625 9.09765625 C-4.0390625 2.9453125 -4.0390625 2.9453125 -3.94140625 1.09765625 C-2.94140625 0.09765625 -2.94140625 0.09765625 0 0 Z " fill="#DDD3E0" transform="translate(331.94140625,221.90234375)"/>
<path d="M0 0 C2.97 0.495 2.97 0.495 6 1 C5.875 3.25 5.875 3.25 5 6 C3.04109119 7.39300182 1.0360882 8.72245446 -1 10 C-2.38576923 11.62332967 -3.72641268 13.28724465 -5 15 C-5.98230498 16.0173873 -6.97469597 17.02596117 -8 18 C-7.79995725 13.69908088 -7.33839587 12.31632657 -4.125 9.3125 C-3.09375 8.549375 -2.0625 7.78625 -1 7 C-0.13375 6.13375 -0.13375 6.13375 0.75 5.25 C2 4 2 4 4 3 C2.68 2.01 1.36 1.02 0 0 Z " fill="#A0295C" transform="translate(240,379)"/>
<path d="M0 0 C0.42410156 0.39832031 0.84820312 0.79664063 1.28515625 1.20703125 C5.32767445 4.85862461 8.88650302 7.12157254 14 9 C11.37270016 11.91922205 8.28533931 13.87821836 5 16 C4.01 16.66 3.02 17.32 2 18 C3.49097658 14.2047869 5.75700849 12.38957269 9 10 C8.3503125 9.44570313 7.700625 8.89140625 7.03125 8.3203125 C6.1959375 7.59585937 5.360625 6.87140625 4.5 6.125 C3.6646875 5.40570313 2.829375 4.68640625 1.96875 3.9453125 C1.3190625 3.30335938 0.669375 2.66140625 0 2 C0 1.34 0 0.68 0 0 Z " fill="#F2CAC9" transform="translate(231,372)"/>
<path d="M0 0 C0.66 1.32 1.32 2.64 2 4 C1.3503125 4.63228516 1.3503125 4.63228516 0.6875 5.27734375 C-1.5191816 7.52999789 -3.49311971 9.94869965 -5.5 12.37890625 C-7 14 -7 14 -10 16 C-9.01 16.99 -8.02 17.98 -7 19 C-9.91517292 17.92598892 -11.77810176 17.22189824 -14 15 C-13.20335937 14.56300781 -13.20335937 14.56300781 -12.390625 14.1171875 C-6.20008274 10.52486553 -3.00950184 6.52058731 0 0 Z " fill="#F1C8C7" transform="translate(229,366)"/>
<path d="M0 0 C0.90105469 0.00902344 1.80210937 0.01804688 2.73046875 0.02734375 C3.41753906 0.03894531 4.10460937 0.05054688 4.8125 0.0625 C5.94833456 3.77977674 5.47920026 5.53301709 3.8125 9.0625 C3.4825 9.0625 3.1525 9.0625 2.8125 9.0625 C2.1525 7.0825 1.4925 5.1025 0.8125 3.0625 C-0.858125 3.124375 -0.858125 3.124375 -2.5625 3.1875 C-6.1875 3.0625 -6.1875 3.0625 -8.1875 1.0625 C-5.17259443 0.05753148 -3.14568308 -0.04085303 0 0 Z " fill="#DDD3E1" transform="translate(320.1875,221.9375)"/>
<path d="M0 0 C0.33 0 0.66 0 1 0 C1.125 5.75 1.125 5.75 0 8 C-4.95 8 -9.9 8 -15 8 C-11.87829314 5.9188621 -11.05253061 5.7999968 -7.5 5.6875 C-5.12895663 5.54495909 -5.12895663 5.54495909 -3 5 C-0.93545998 2.59256899 -0.93545998 2.59256899 0 0 Z " fill="#C9C1CC" transform="translate(192,262)"/>
<path d="M0 0 C1.98 0 3.96 0 6 0 C5.34 0.66 4.68 1.32 4 2 C3.45051478 3.82796601 3.45051478 3.82796601 3.1484375 5.9140625 C3.01953125 6.67460937 2.890625 7.43515625 2.7578125 8.21875 C2.63148438 9.0128125 2.50515625 9.806875 2.375 10.625 C2.2409375 11.42679688 2.106875 12.22859375 1.96875 13.0546875 C1.63865211 15.03527484 1.31838917 17.01749675 1 19 C0.67 19 0.34 19 0 19 C0 12.73 0 6.46 0 0 Z " fill="#EFEAF0" transform="translate(160,223)"/>
<path d="M0 0 C0 3.57957834 -0.81792457 4.46310605 -2.875 7.3125 C-5.28019181 10.78414478 -6.93992305 13.86569988 -8 18 C-8.66 18 -9.32 18 -10 18 C-10.33 16.02 -10.66 14.04 -11 12 C-10.01 12.33 -9.02 12.66 -8 13 C-7.79375 12.154375 -7.5875 11.30875 -7.375 10.4375 C-5.66138645 6.15346611 -3.13067644 3.32757433 0 0 Z " fill="#F0C8C6" transform="translate(266,357)"/>
<path d="M0 0 C3 1 3 1 5.1875 3.25 C8.01193652 6.01167127 10.76674021 7.8485239 14.12890625 9.86328125 C16.19178042 11.11650961 18.10799001 12.50215876 20 14 C15.05017633 13.51744703 12.24992504 12.12337388 8.3125 9.125 C7.38050781 8.42632812 6.44851563 7.72765625 5.48828125 7.0078125 C1.59290541 3.86460499 1.59290541 3.86460499 0 2 C0 1.34 0 0.68 0 0 Z " fill="#E7BBBD" transform="translate(263,331)"/>
<path d="M0 0 C0.33 2.31 0.66 4.62 1 7 C0.01 6.01 -0.98 5.02 -2 4 C-3.65 6.64 -5.3 9.28 -7 12 C-7.33 11.01 -7.66 10.02 -8 9 C-7.34 8.34 -6.68 7.68 -6 7 C-5.835 5.989375 -5.67 4.97875 -5.5 3.9375 C-5.335 2.968125 -5.17 1.99875 -5 1 C-3 0 -3 0 0 0 Z " fill="#963B61" transform="translate(231,165)"/>
<path d="M0 0 C0.33 0.66 0.66 1.32 1 2 C-0.3125 4 -0.3125 4 -2 6 C-2.99 6 -3.98 6 -5 6 C-5 6.66 -5 7.32 -5 8 C-7.5614657 10.29648649 -8.47967572 11 -12 11 C-11.34 9.68 -10.68 8.36 -10 7 C-8.68 7 -7.36 7 -6 7 C-6 6.34 -6 5.68 -6 5 C-5.34 5 -4.68 5 -4 5 C-3.71125 4.360625 -3.4225 3.72125 -3.125 3.0625 C-2 1 -2 1 0 0 Z " fill="#CC8996" transform="translate(252,329)"/>
<path d="M0 0 C2.97 0 5.94 0 9 0 C8.34 0.66 7.68 1.32 7 2 C6.3162387 4.88717605 6.3162387 4.88717605 5.875 8.125 C5.70742188 9.22070312 5.53984375 10.31640625 5.3671875 11.4453125 C5.24601562 12.28835937 5.12484375 13.13140625 5 14 C4.67 14 4.34 14 4 14 C3.96261719 13.24074219 3.92523438 12.48148438 3.88671875 11.69921875 C3.82097656 10.70535156 3.75523437 9.71148437 3.6875 8.6875 C3.62949219 7.70136719 3.57148438 6.71523437 3.51171875 5.69921875 C3.1920644 2.62903959 3.1920644 2.62903959 0 0 Z " fill="#EFEAF1" transform="translate(280,223)"/>
<path d="M0 0 C-0.33 1.32 -0.66 2.64 -1 4 C-0.01 4.66 0.98 5.32 2 6 C2 6.66 2 7.32 2 8 C0.53932801 7.54917531 -0.91848032 7.08906463 -2.375 6.625 C-3.18710938 6.36976563 -3.99921875 6.11453125 -4.8359375 5.8515625 C-7 5 -7 5 -9 3 C-2.25 0 -2.25 0 0 0 Z " fill="#A13E5E" transform="translate(240,342)"/>
<path d="M0 0 C0 3 0 3 -1.5 4.5625 C-1.995 5.036875 -2.49 5.51125 -3 6 C-3 6.66 -3 7.32 -3 8 C-1.37373596 9.38232443 0.2925002 10.71937515 2 12 C1.67 12.99 1.34 13.98 1 15 C-2 12 -5 9 -8 6 C-7.05125 5.38125 -6.1025 4.7625 -5.125 4.125 C-2.05554891 2.18029031 -2.05554891 2.18029031 0 0 Z " fill="#B73B5A" transform="translate(226,375)"/>
<path d="M0 0 C3.77639718 0.51032394 5.44722581 1.20766929 8 4 C6.71349294 4.69710731 5.42059335 5.38242876 4.125 6.0625 C3.04605469 6.63677734 3.04605469 6.63677734 1.9453125 7.22265625 C1.30335938 7.47917969 0.66140625 7.73570312 0 8 C-0.66 7.67 -1.32 7.34 -2 7 C-1.01 6.67 -0.02 6.34 1 6 C0.67 4.02 0.34 2.04 0 0 Z " fill="#DF9EA3" transform="translate(277,143)"/>
<path d="M0 0 C0.66 0.33 1.32 0.66 2 1 C1.34 2.32 0.68 3.64 0 5 C-0.66 5 -1.32 5 -2 5 C-1.67 6.32 -1.34 7.64 -1 9 C-0.34 8.01 0.32 7.02 1 6 C0.67 7.65 0.34 9.3 0 11 C-0.99 11 -1.98 11 -3 11 C-3.66 7.7 -4.32 4.4 -5 1 C-2.525 1.495 -2.525 1.495 0 2 C0 1.34 0 0.68 0 0 Z " fill="#A74460" transform="translate(258,166)"/>
<path d="M0 0 C0.33 0 0.66 0 1 0 C1 1.98 1 3.96 1 6 C0.34 5.67 -0.32 5.34 -1 5 C-3.29924497 4.72975292 -5.59801487 4.55502159 -7.90625 4.37890625 C-10 4 -10 4 -12 2 C-11.21753906 1.93941406 -10.43507812 1.87882813 -9.62890625 1.81640625 C-8.61699219 1.73261719 -7.60507813 1.64882812 -6.5625 1.5625 C-5.55316406 1.48128906 -4.54382813 1.40007812 -3.50390625 1.31640625 C-1.06359221 1.26788532 -1.06359221 1.26788532 0 0 Z " fill="#C6B9CB" transform="translate(188,241)"/>
<path d="M0 0 C2.64 0 5.28 0 8 0 C8 0.66 8 1.32 8 2 C6.68 2.33 5.36 2.66 4 3 C4 6.63 4 10.26 4 14 C3.67 14 3.34 14 3 14 C3 10.04 3 6.08 3 2 C2.01 2 1.02 2 0 2 C0 1.34 0 0.68 0 0 Z " fill="#D4C8D9" transform="translate(222,222)"/>
<path d="M0 0 C1.98 0.66 3.96 1.32 6 2 C4.8553125 2.86625 4.8553125 2.86625 3.6875 3.75 C1.32601919 5.7270537 -0.21461673 7.53447072 -2 10 C-2.99 10.495 -2.99 10.495 -4 11 C-3.75 8.625 -3.75 8.625 -3 6 C-0.9375 4.6875 -0.9375 4.6875 1 4 C0.67 2.68 0.34 1.36 0 0 Z " fill="#A84763" transform="translate(236,180)"/>
<path d="M0 0 C0.99 0.495 0.99 0.495 2 1 C2 1.99 2 2.98 2 4 C3.65 4.33 5.3 4.66 7 5 C7 5.66 7 6.32 7 7 C6.34 7 5.68 7 5 7 C5 8.65 5 10.3 5 12 C5.66 12.33 6.32 12.66 7 13 C6.01 13 5.02 13 4 13 C0.71428571 4.57142857 0.71428571 4.57142857 0 0 Z " fill="#A83C5C" transform="translate(251,363)"/>
<path d="M0 0 C0 3.93974955 -1.47789475 5.82936093 -3.5 9.1875 C-4.47453125 10.81751953 -4.47453125 10.81751953 -5.46875 12.48046875 C-6.22671875 13.72763672 -6.22671875 13.72763672 -7 15 C-7.33 14.34 -7.66 13.68 -8 13 C-7.109375 10.72265625 -7.109375 10.72265625 -5.75 8.0625 C-5.31171875 7.18722656 -4.8734375 6.31195313 -4.421875 5.41015625 C-3.12702335 3.21531155 -1.89036879 1.68465218 0 0 Z " fill="#9E375B" transform="translate(266,359)"/>
<path d="M0 0 C0.33 0 0.66 0 1 0 C1 1.65 1 3.3 1 5 C-2.96 4.67 -6.92 4.34 -11 4 C-11 3.34 -11 2.68 -11 2 C-10.28972656 1.93941406 -9.57945313 1.87882813 -8.84765625 1.81640625 C-7.46900391 1.69072266 -7.46900391 1.69072266 -6.0625 1.5625 C-5.14597656 1.48128906 -4.22945313 1.40007812 -3.28515625 1.31640625 C-1.03840268 1.23955024 -1.03840268 1.23955024 0 0 Z " fill="#D6C3D4" transform="translate(130,243)"/>
<path d="M0 0 C0 3.78713193 -1.26892594 5.83354401 -3 9.1875 C-3.556875 10.27417969 -4.11375 11.36085937 -4.6875 12.48046875 C-5.120625 13.31191406 -5.55375 14.14335937 -6 15 C-6.66 14.01 -7.32 13.02 -8 12 C-7.67 11.01 -7.34 10.02 -7 9 C-6.34 9.33 -5.68 9.66 -5 10 C-4.731875 9.0925 -4.46375 8.185 -4.1875 7.25 C-3.10423706 4.28528037 -2.01640543 2.3830246 0 0 Z " fill="#F2D0CD" transform="translate(263,161)"/>
<path d="M0 0 C0.66 0.33 1.32 0.66 2 1 C2.73075648 3.3140622 3.40138258 5.64828869 4 8 C3.34 8 2.68 8 2 8 C2 7.34 2 6.68 2 6 C1.54625 6.495 1.0925 6.99 0.625 7.5 C-1 9 -1 9 -3 9 C-2.01 6.03 -1.02 3.06 0 0 Z " fill="#A33F5D" transform="translate(256,320)"/>
<path d="M0 0 C0.33 0 0.66 0 1 0 C2.03863773 6.23182639 1.83288874 11.74692761 1 18 C0.67 18 0.34 18 0 18 C-0.73030908 11.78675502 -1.23180249 6.15901243 0 0 Z " fill="#C6BBCB" transform="translate(283,232)"/>
<path d="M0 0 C1.51953125 1.36328125 1.51953125 1.36328125 3 3 C2.6875 5.1875 2.6875 5.1875 2 7 C1.67 6.34 1.34 5.68 1 5 C-0.32 7.31 -1.64 9.62 -3 12 C-4 10 -4 10 -3.22265625 7.6171875 C-2.83980469 6.71226563 -2.45695313 5.80734375 -2.0625 4.875 C-1.68222656 3.96492188 -1.30195313 3.05484375 -0.91015625 2.1171875 C-0.60980469 1.41851562 -0.30945313 0.71984375 0 0 Z " fill="#F2CAC8" transform="translate(256,117)"/>
<path d="M0 0 C0.99 0.33 1.98 0.66 3 1 C-0.17320782 4.53586014 -2.16743695 6.58578031 -7 7 C-5.37660195 5.29115995 -3.70680947 3.62553283 -2 2 C-1.34 2 -0.68 2 0 2 C0 1.34 0 0.68 0 0 Z " fill="#8E3660" transform="translate(247,335)"/>
<path d="M0 0 C0.33 0 0.66 0 1 0 C1 3.63 1 7.26 1 11 C1.66 11.33 2.32 11.66 3 12 C0.36 12.33 -2.28 12.66 -5 13 C-4.360625 12.525625 -3.72125 12.05125 -3.0625 11.5625 C-0.15149728 7.94579965 -0.19350218 4.52795106 0 0 Z " fill="#DED8E0" transform="translate(201,257)"/>
<path d="M0 0 C1.65 0 3.3 0 5 0 C4.67 0.99 4.34 1.98 4 3 C2.41705218 3.05437607 0.83355744 3.09296271 -0.75 3.125 C-1.63171875 3.14820313 -2.5134375 3.17140625 -3.421875 3.1953125 C-6 3 -6 3 -10 1 C-6.7 1.33 -3.4 1.66 0 2 C0 1.34 0 0.68 0 0 Z " fill="#B8336C" transform="translate(227,397)"/>
<path d="M0 0 C0.33 0 0.66 0 1 0 C1 2.31 1 4.62 1 7 C-0.65 7.33 -2.3 7.66 -4 8 C-2.66666667 5.33333333 -1.33333333 2.66666667 0 0 Z " fill="#DED5DF" transform="translate(135,261)"/>
<path d="M0 0 C0.99 0.33 1.98 0.66 3 1 C2.67 1.66 2.34 2.32 2 3 C1.34 2.67 0.68 2.34 0 2 C-0.4021875 3.2065625 -0.4021875 3.2065625 -0.8125 4.4375 C-1.4003125 5.7059375 -1.4003125 5.7059375 -2 7 C-2.99 7.33 -3.98 7.66 -5 8 C-3.8141763 4.62496331 -2.72426311 2.35277269 0 0 Z " fill="#95315D" transform="translate(256,125)"/>
<path d="M0 0 C0.33 0.66 0.66 1.32 1 2 C1.66 2.33 2.32 2.66 3 3 C0.25 8.875 0.25 8.875 -2 10 C-1.34 6.7 -0.68 3.4 0 0 Z " fill="#DBD2DC" transform="translate(363,261)"/>
<path d="M0 0 C1.65 0 3.3 0 5 0 C4.67 2.31 4.34 4.62 4 7 C3.34 7 2.68 7 2 7 C1.34 4.69 0.68 2.38 0 0 Z " fill="#E9E2EB" transform="translate(189,222)"/>
<path d="M0 0 C3.375 0.6875 3.375 0.6875 7 2 C8.4375 4.625 8.4375 4.625 9 7 C8.34 7 7.68 7 7 7 C6.34 6.01 5.68 5.02 5 4 C2.44816596 2.79549696 2.44816596 2.79549696 0 2 C0 1.34 0 0.68 0 0 Z " fill="#7F2C5F" transform="translate(269,340)"/>
<path d="M0 0 C1.875 0.25 1.875 0.25 4 1 C5.0625 2.875 5.0625 2.875 6 5 C7.5412312 6.70921589 7.5412312 6.70921589 9 8 C4.58848129 6.65203595 2.61191481 4.77276583 0 1 C0 0.67 0 0.34 0 0 Z " fill="#993A5E" transform="translate(232,172)"/>
<path d="M0 0 C1.98 0.495 1.98 0.495 4 1 C4 2.65 4 4.3 4 6 C2.35 6.33 0.7 6.66 -1 7 C-0.649375 6.21625 -0.29875 5.4325 0.0625 4.625 C0.371875 3.75875 0.68125 2.8925 1 2 C0.67 1.34 0.34 0.68 0 0 Z " fill="#8C325D" transform="translate(274,143)"/>
<path d="M0 0 C0.66 0.33 1.32 0.66 2 1 C2 1.66 2 2.32 2 3 C2.66 3 3.32 3 4 3 C4.66 4.65 5.32 6.3 6 8 C5.01 7.67 4.02 7.34 3 7 C2.67 6.34 2.34 5.68 2 5 C1.01 5 0.02 5 -1 5 C-0.67 3.35 -0.34 1.7 0 0 Z " fill="#D17884" transform="translate(256,121)"/>
<path d="M0 0 C3 0 3 0 4.38671875 1.3125 C5.59114583 2.875 6.79557292 4.4375 8 6 C7.67 6.66 7.34 7.32 7 8 C1.25 3.25 1.25 3.25 -1 1 C-0.67 0.67 -0.34 0.34 0 0 Z " fill="#A53B58" transform="translate(219,181)"/>
<path d="M0 0 C0.33 0 0.66 0 1 0 C1.04254356 1.99954746 1.04080783 4.00041636 1 6 C0 7 0 7 -2.5625 7.0625 C-3.7690625 7.0315625 -3.7690625 7.0315625 -5 7 C-4.360625 6.21625 -3.72125 5.4325 -3.0625 4.625 C-1.01857687 2.20460719 -1.01857687 2.20460719 0 0 Z " fill="#EEEBEF" transform="translate(192,262)"/>
<path d="M0 0 C1.98 0 3.96 0 6 0 C5.34 0.66 4.68 1.32 4 2 C3.60235737 3.98821313 3.26224651 5.98944339 3 8 C1.0549 5.08235 0.54723683 3.37462715 0 0 Z " fill="#E8E0EA" transform="translate(160,223)"/>
</svg>
